<?xml version="1.0" encoding="utf-8"?>
<!-- Generator: Adobe Illustrator 18.0.0, SVG Export Plug-In . SVG Version: 6.00 Build 0)  -->
<!DOCTYPE svg PUBLIC "-//W3C//DTD SVG 1.1//EN" "http://www.w3.org/Graphics/SVG/1.1/DTD/svg11.dtd">
<svg version="1.1" id="SvgjsSvg1000" xmlns:svgjs="http://svgjs.com/svgjs"
	 xmlns="http://www.w3.org/2000/svg" xmlns:xlink="http://www.w3.org/1999/xlink" x="0px" y="0px" viewBox="0 0 15 13"
	 enable-background="new 0 0 15 13" xml:space="preserve">
<path id="SvgjsPath1007" fill="#427BE7" d="M14.8,9.7l-3.3,3.1C11.2,13,11,13,10.8,13c-0.4,0-0.5-0.2-0.6-0.3
	c-0.3-0.3-0.2-0.7,0.1-1l1.9-1.8H3C1.3,9.9,0,8.6,0,7V0.8C0,0.3,0.3,0,0.8,0c0.5,0,0.8,0.3,0.8,0.8V7c0,0.7,0.7,1.4,1.4,1.4h9.2
	l-1.9-1.8c-0.3-0.3-0.3-0.8,0-1.1c0.2-0.1,0.3-0.2,0.6-0.2c0.2,0,0.4,0.1,0.5,0.2l3.3,3.1C15.1,8.9,15.1,9.4,14.8,9.7z"/>
</svg>
