<?xml version="1.0" encoding="utf-8"?>
<!-- Generator: Adobe Illustrator 18.0.0, SVG Export Plug-In . SVG Version: 6.00 Build 0)  -->
<!DOCTYPE svg PUBLIC "-//W3C//DTD SVG 1.1//EN" "http://www.w3.org/Graphics/SVG/1.1/DTD/svg11.dtd">
<svg version="1.1" id="SvgjsSvg1000" xmlns:svgjs="http://svgjs.com/svgjs"
	 xmlns="http://www.w3.org/2000/svg" xmlns:xlink="http://www.w3.org/1999/xlink" x="0px" y="0px" viewBox="0 0 29 25.6"
	 enable-background="new 0 0 29 25.6" xml:space="preserve">
<path id="SvgjsPath1007" fill="#427BE7" d="M14.5,0l13.2,7.3v1.3H1.3V7.3L14.5,0z M10.1,19.9c0,0.3-0.3,0.6-0.6,0.6h-5
	c-0.4,0-0.6-0.3-0.6-0.6c0-0.4,0.3-0.6,0.6-0.6H5v-8.2H4.4c-0.4,0-0.6-0.3-0.6-0.6s0.3-0.6,0.6-0.6h5c0.4,0,0.6,0.3,0.6,0.6
	s-0.3,0.6-0.6,0.6H8.8v8.2h0.6C9.8,19.3,10.1,19.6,10.1,19.9z M25.2,19.9c0,0.3-0.3,0.6-0.6,0.6h-5c-0.4,0-0.6-0.3-0.6-0.6
	c0-0.4,0.3-0.6,0.6-0.6h0.6v-8.2h-0.6c-0.4,0-0.6-0.3-0.6-0.6s0.3-0.6,0.6-0.6h5c0.4,0,0.6,0.3,0.6,0.6s-0.3,0.6-0.6,0.6H24v8.2h0.6
	C24.9,19.3,25.2,19.6,25.2,19.9z M17.6,19.9c0,0.3-0.3,0.6-0.6,0.6h-5c-0.4,0-0.6-0.3-0.6-0.6c0-0.4,0.3-0.6,0.6-0.6h0.6v-8.2H12
	c-0.4,0-0.6-0.3-0.6-0.6s0.3-0.6,0.6-0.6h5c0.4,0,0.6,0.3,0.6,0.6s-0.3,0.6-0.6,0.6h-0.6v8.2H17C17.4,19.3,17.6,19.6,17.6,19.9z
	 M0.6,25.6C0.3,25.6,0,25.4,0,25s0.3-0.6,0.6-0.6h27.7c0.4,0,0.6,0.3,0.6,0.6s-0.3,0.6-0.6,0.6H0.6z M26.5,23.1h-24
	c-0.3,0-0.6-0.3-0.6-0.6s0.3-0.6,0.6-0.6h24c0.3,0,0.6,0.3,0.6,0.6S26.8,23.1,26.5,23.1z M6.3,11.1v8.2h1.3v-8.2H6.3z M21.4,11.1
	v8.2h1.3v-8.2H21.4z M13.9,11.1v8.2h1.3v-8.2H13.9z M14.5,1.8L4,7.3h20.9L14.5,1.8z"/>
</svg>
