<?xml version="1.0" encoding="utf-8"?>
<!-- Generator: Adobe Illustrator 19.0.0, SVG Export Plug-In . SVG Version: 6.00 Build 0)  -->
<svg version="1.1" id="SvgjsSvg1017" xmlns:svgjs="http://svgjs.com/svgjs"
	 xmlns="http://www.w3.org/2000/svg" xmlns:xlink="http://www.w3.org/1999/xlink" x="0px" y="0px" viewBox="-297 386 16 21"
	 style="enable-background:new -297 386 16 21;" xml:space="preserve">
<style type="text/css">
	.st0{fill:#427BE7;}
</style>
<path id="SvgjsPath1019" class="st0" d="M-284,392v-1.5c0-2.8-2-4.5-5-4.5s-5,1.7-5,4.5c0,0.6,0,1.1,0,1.5h-1.4
	c-0.9,0-1.6,0.7-1.6,1.6v11.7c0,0.9,0.7,1.6,1.6,1.6h12.7c0.9,0,1.6-0.7,1.6-1.6v-11.7c0-0.9-0.7-1.6-1.6-1.6H-284z M-295,405v-11
	h12v11H-295z M-292,390.5c0-1.6,1-2.5,3-2.5s3,0.9,3,2.5v1.5h-6C-292,391.6-292,391.1-292,390.5z"/>
</svg>
