<?xml version="1.0" encoding="utf-8"?>
<!-- Generator: Adobe Illustrator 18.0.0, SVG Export Plug-In . SVG Version: 6.00 Build 0)  -->
<!DOCTYPE svg PUBLIC "-//W3C//DTD SVG 1.1//EN" "http://www.w3.org/Graphics/SVG/1.1/DTD/svg11.dtd">
<svg version="1.1" id="SvgjsSvg1013" xmlns:svgjs="http://svgjs.com/svgjs"
	 xmlns="http://www.w3.org/2000/svg" xmlns:xlink="http://www.w3.org/1999/xlink" x="0px" y="0px" viewBox="0 0 19 25.7"
	 enable-background="new 0 0 19 25.7" xml:space="preserve">
<path id="SvgjsPath1015" fill="#427BE7" d="M6.1,17V6.6c0,0,0.1-2.1,2.1-2.1c2,0,2.1,2,2.1,2l0.6,5.3c0,0,1.8,0.5,4.3,1.4
	c2.4,0.9,3.2,1.5,3.2,1.5s0.3,0,0.5,0.8s0.3,2.5,0,4.4c-0.5,2.7-0.9,3.9-3.3,5.2c-2.4,1.2-6.2,0.8-9.6-1.7c-3.3-2.4-5.5-5.3-5.8-5.8
	c-0.3-0.5,0-0.9,0.1-1.1c0.1-0.1,0.9-0.9,2.4-0.9c0.4,0,0.9,0.2,1.4,0.4L6.1,17z M16.9,16.1c-0.1,0-0.1-0.1-0.2-0.1
	c-0.5-0.3-1.3-0.6-2.3-1c-1-0.4-2-0.7-2.9-1c-0.5-0.2-0.9-0.3-1.1-0.3C9.6,13.5,9,12.9,8.9,12L8.3,6.6c0,0,0-0.1-0.1-0.1
	c0,0,0,0,0,0c0,0,0,0-0.1,0c0,0,0,0,0,0c0,0,0,0,0,0c0,0.1-0.1,0.2-0.1,0.2v10.5c0,1.7-1.9,2.6-3.2,1.6c0,0-0.1-0.1-0.3-0.2
	c-0.2-0.2-0.5-0.3-0.7-0.5c-0.3-0.1-0.5-0.3-0.7-0.4c-0.3-0.1-0.4-0.2-0.4-0.2c0,0,0,0,0,0c0.2,0.2,0.4,0.5,0.7,0.8
	c1.1,1.2,2.4,2.4,3.7,3.4c2.7,1.9,5.7,2.4,7.5,1.5c1.6-0.8,1.9-1.2,2.3-3.7C17,18.3,17,17,16.9,16.1z M1.8,16.5
	C2.2,17,2,17.6,1.7,17.9c0,0,0.1-0.1,0.2-0.1c0.2-0.1,0.5-0.2,0.8-0.2C2.3,17.1,1.9,16.7,1.8,16.5z M16.9,15.8c0,0.1,0,0.2,0,0.3
	c0.1,0.1,0.2,0.1,0.2,0.1c0.4,0.3,0.8,0.4,1.3,0.4c-0.6,0-1.2-0.3-1.4-0.7C16.9,15.9,16.9,15.8,16.9,15.8z M8.1,6.6l0,0.1
	C8.1,6.8,8.1,6.7,8.1,6.6L8.1,6.6z M8.1,6.5C8.2,6.5,8.1,6.5,8.1,6.5z M8.3,6.5C8.3,6.5,8.3,6.5,8.3,6.5z M8.1,6.8
	C8.1,6.8,8,6.8,8.1,6.8L8.1,6.8z M4.9,7.1c0.3,0.5,0,1.1-0.4,1.3C4,8.6,3.4,8.4,3.1,7.9C3,7.8,2.9,7.5,2.8,7.2
	C2.6,6.6,2.5,6.1,2.5,5.5C2.5,2.4,5,0,8,0s5.5,2.4,5.5,5.5c0,0.6-0.1,1.1-0.3,1.7c-0.1,0.3-0.2,0.6-0.3,0.8
	c-0.2,0.5-0.8,0.7-1.3,0.4c-0.5-0.2-0.7-0.8-0.4-1.3c0-0.1,0.1-0.3,0.2-0.5c0.1-0.4,0.2-0.7,0.2-1.1C11.5,3.6,10,2,8,2
	S4.5,3.6,4.5,5.5c0,0.3,0.1,0.7,0.2,1.1C4.8,6.8,4.9,7,4.9,7.1z"/>
</svg>
