<?xml version="1.0" encoding="utf-8"?>
<!-- Generator: Adobe Illustrator 18.0.0, SVG Export Plug-In . SVG Version: 6.00 Build 0)  -->
<!DOCTYPE svg PUBLIC "-//W3C//DTD SVG 1.1//EN" "http://www.w3.org/Graphics/SVG/1.1/DTD/svg11.dtd">
<svg version="1.1" id="SvgjsSvg1000" xmlns:svgjs="http://svgjs.com/svgjs"
	 xmlns="http://www.w3.org/2000/svg" xmlns:xlink="http://www.w3.org/1999/xlink" x="0px" y="0px" viewBox="0 0 16 16.3"
	 enable-background="new 0 0 16 16.3" xml:space="preserve">
<path id="SvgjsPath1007" fill="#427BE7" d="M2,2.3h1.3V0.8C3.3,0.3,3.6,0,4,0s0.8,0.3,0.8,0.8v1.5h6.5V0.8C11.3,0.3,11.6,0,12,0
	s0.8,0.3,0.8,0.8v1.5H14c1.1,0,2,0.9,2,2v10c0,1.1-0.9,2-2,2H2c-1.1,0-2-0.9-2-2v-10C0,3.1,0.9,2.3,2,2.3z M1.5,14.2
	c0,0.3,0.2,0.5,0.5,0.5h12c0.3,0,0.5-0.2,0.5-0.5v-10c0-0.3-0.2-0.5-0.5-0.5h-1.3v0.5C12.8,4.7,12.4,5,12,5s-0.8-0.3-0.8-0.8V3.8
	H4.8v0.5C4.8,4.7,4.4,5,4,5S3.3,4.7,3.3,4.3V3.8H2C1.7,3.8,1.5,4,1.5,4.3V14.2z M3,9c0-0.6,0.4-1,1-1s1,0.4,1,1s-0.4,1-1,1
	S3,9.6,3,9z M3,12c0-0.6,0.4-1,1-1s1,0.4,1,1s-0.4,1-1,1S3,12.6,3,12z M7,12c0-0.6,0.4-1,1-1s1,0.4,1,1s-0.4,1-1,1S7,12.6,7,12z
	 M7,9c0-0.6,0.4-1,1-1s1,0.4,1,1s-0.4,1-1,1S7,9.6,7,9z M11,9c0-0.6,0.4-1,1-1s1,0.4,1,1s-0.4,1-1,1S11,9.6,11,9z M11,12
	c0-0.6,0.4-1,1-1s1,0.4,1,1s-0.4,1-1,1S11,12.6,11,12z M14.5,6h-13v1.5h13V6z"/>
</svg>
