<?xml version="1.0" encoding="utf-8"?>
<!-- Generator: Adobe Illustrator 19.0.0, SVG Export Plug-In . SVG Version: 6.00 Build 0)  -->
<svg version="1.1" id="SvgjsSvg1000" xmlns:svgjs="http://svgjs.com/svgjs"
	 xmlns="http://www.w3.org/2000/svg" xmlns:xlink="http://www.w3.org/1999/xlink" x="0px" y="0px" viewBox="-296 387 18 19"
	 enable-background="new -296 387 18 19" xml:space="preserve">
<title>Combined Shape</title>
<desc>Created with Avocode.</desc>
<path id="SvgjsPath1007" fill="#427BE7" d="M-280,404c0,1.1-0.9,2-2,2h-10c-1.1,0-2-0.9-2-2v-12h-1c-0.6,0-1-0.4-1-1s0.4-1,1-1h16
	c0.6,0,1,0.4,1,1s-0.4,1-1,1h-1V404z M-292,402c0,1.1,0.9,2,2,2h6c1.1,0,2-0.9,2-2v-8c0-1.1-0.9-2-2-2h-6c-1.1,0-2,0.9-2,2V402z
	 M-289,387h4c0.6,0,1,0.4,1,1s-0.4,1-1,1h-4c-0.6,0-1-0.4-1-1S-289.6,387-289,387z M-290,395c0-0.6,0.4-1,1-1s1,0.4,1,1v6
	c0,0.6-0.4,1-1,1s-1-0.4-1-1V395z M-286,395c0-0.6,0.4-1,1-1s1,0.4,1,1v6c0,0.6-0.4,1-1,1s-1-0.4-1-1V395z"/>
</svg>
