<?xml version="1.0" encoding="utf-8"?>
<!-- Generator: Adobe Illustrator 18.0.0, SVG Export Plug-In . SVG Version: 6.00 Build 0)  -->
<!DOCTYPE svg PUBLIC "-//W3C//DTD SVG 1.1//EN" "http://www.w3.org/Graphics/SVG/1.1/DTD/svg11.dtd">
<svg version="1.1" id="SvgjsSvg1000" xmlns:svgjs="http://svgjs.com/svgjs"
	 xmlns="http://www.w3.org/2000/svg" xmlns:xlink="http://www.w3.org/1999/xlink" x="0px" y="0px" viewBox="0 0 16.6 10"
	 enable-background="new 0 0 16.6 10" xml:space="preserve">
<path id="SvgjsPath1007" fill="#FFFFFF" d="M0,0.8C0,0.3,0.3,0,0.8,0h6.5C7.7,0,8,0.3,8,0.8V8h1.8V1.5h3.8l3,3.8v3.8H16
	C15.8,8,14.8,7,13.5,7C12.1,7,11,8.1,11,9.5c0,0.2,0,0.3,0,0.5H7.8C7.3,10,7,9.7,7,9.3V9h0C6.7,7.9,5.7,7,4.5,7S2.3,7.9,2,9H0.8
	C0.3,9,0,8.7,0,8.3V0.8z M12,9c0-0.6,0.4-1,1-1s1,0.4,1,1s-0.4,1-1,1S12,9.6,12,9z M3,9c0-0.6,0.4-1,1-1s1,0.4,1,1s-0.4,1-1,1
	S3,9.6,3,9z M14.3,5.4c0.4,0,0.6-0.3,0.3-0.6l-1.4-1.9c-0.2-0.3-0.8-0.6-1.2-0.6h0c-0.4,0-0.8,0.3-0.8,0.8v1.6
	c0,0.4,0.3,0.8,0.8,0.8H14.3z"/>
</svg>
