<?xml version="1.0" encoding="utf-8"?>
<!-- Generator: Adobe Illustrator 18.0.0, SVG Export Plug-In . SVG Version: 6.00 Build 0)  -->
<!DOCTYPE svg PUBLIC "-//W3C//DTD SVG 1.1//EN" "http://www.w3.org/Graphics/SVG/1.1/DTD/svg11.dtd">
<svg version="1.1" id="SvgjsSvg1008" xmlns:svgjs="http://svgjs.com/svgjs"
	 xmlns="http://www.w3.org/2000/svg" xmlns:xlink="http://www.w3.org/1999/xlink" x="0px" y="0px" viewBox="0 0 32.2 23"
	 enable-background="new 0 0 32.2 23" xml:space="preserve">
<path id="SvgjsPath1010" fill="#427BE7" d="M31.8,14.8l0.2,0.2c0.2,0.2,0.2,0.4,0.2,0.6v1.6c0,1-1,2-2,2c-0.1,0-2.2,0-2.3,0
	c-0.1,0-0.2-0.1-0.2-0.1s0,0,0,0c-0.1,0-0.1-0.1-0.2-0.2c-0.1,0-0.1-0.1-0.1-0.2c0,0,0,0,0,0c-0.4-1.3-1.6-2.2-3.2-2.2
	c-1.5,0-2.8,0.9-3.3,2.3c-0.1,0.4-0.4,0.5-0.9,0.5h-7.3c-0.4,0-0.7-0.2-0.8-0.6c-0.4-1.3-1.7-2.2-3.2-2.2c-1,0-1.9,0.4-2.6,1
	c-0.6,0.6-1,1.5-1,2.5c0,0.2,0,0.3,0.1,0.6c0.1,0.4-0.2,0.9-0.6,1c0,0-0.1,0-0.2,0c-0.4,0-0.7-0.3-0.8-0.6c-0.1-0.3-0.1-0.6-0.1-1
	c0-0.3,0-0.5,0-0.8H2c-1,0-2-0.9-2-2v-2.4c0-0.2,0.1-0.4,0.2-0.5L0.4,14V2c0-1,1-2,2-2h14.3c1,0,2,0.9,2,2v1.6h6.8
	c0.9,0,2,0.6,2.4,1.7L29.1,9l2.3,1c0.3,0.1,0.5,0.4,0.5,0.7V14.8z M30.6,17.1v-1.2h-1.2c-0.4,0-0.8-0.3-0.8-0.8s0.4-0.8,0.8-0.8h0.8
	v-3.1l-1.4-0.6l-0.3,0.8c-0.1,0.3-0.4,0.5-0.8,0.5h-3.4c-0.2,0-0.4-0.1-0.5-0.2l-1.8-1.6c-0.2-0.2-0.3-0.3-0.3-0.6V5.2h-3.2v10.7
	c0,0.4-0.4,0.8-0.8,0.8c-0.4,0-0.8-0.4-0.8-0.8v-1.2h-4c-0.4,0-0.8-0.3-0.8-0.8c0-0.4,0.4-0.8,0.8-0.8h4V2c0-0.2-0.2-0.4-0.4-0.4
	H2.4C2.2,1.6,2,1.8,2,2v11.1h2.4c0.4,0,0.8,0.4,0.8,0.8c0,0.4-0.4,0.8-0.8,0.8H1.9c0,0-0.1,0.1-0.1,0.2L1.6,15v2.1
	c0,0.2,0.2,0.4,0.4,0.4h2.1C4.4,17,4.7,16.5,5,16.2c1-0.9,2.3-1.5,3.7-1.5c2.1,0,3.8,1.1,4.5,2.8h6.4c0.9-1.7,2.6-2.8,4.6-2.8
	c2.1,0,3.8,1.1,4.5,2.8h1.4C30.4,17.4,30.6,17.2,30.6,17.1z M8.8,16.7c1.7,0,3.2,1.4,3.2,3.2c0,1.7-1.4,3.2-3.2,3.2
	c-1.8,0-3.2-1.4-3.2-3.2C5.6,18.1,7,16.7,8.8,16.7z M24.3,16.7c1.8,0,3.2,1.4,3.2,3.2c0,1.7-1.4,3.2-3.2,3.2s-3.2-1.4-3.2-3.2
	C21.1,18.1,22.5,16.7,24.3,16.7z M26.2,5.7c-0.1-0.4-0.5-0.5-0.8-0.5h-2v4l1.3,1.1h2.5l0.3-0.7L26.2,5.7z M8.8,21.4
	c0.9,0,1.6-0.7,1.6-1.6c0-0.9-0.7-1.6-1.6-1.6c-0.9,0-1.6,0.7-1.6,1.6C7.2,20.7,7.9,21.4,8.8,21.4z M24.3,21.4
	c0.9,0,1.6-0.7,1.6-1.6c0-0.9-0.7-1.6-1.6-1.6c-0.9,0-1.6,0.7-1.6,1.6C22.7,20.7,23.4,21.4,24.3,21.4z"/>
</svg>
