<?xml version="1.0" encoding="utf-8"?>
<!-- Generator: Adobe Illustrator 18.0.0, SVG Export Plug-In . SVG Version: 6.00 Build 0)  -->
<!DOCTYPE svg PUBLIC "-//W3C//DTD SVG 1.1//EN" "http://www.w3.org/Graphics/SVG/1.1/DTD/svg11.dtd">
<svg version="1.1" id="SvgjsSvg1008" xmlns:svgjs="http://svgjs.com/svgjs"
	 xmlns="http://www.w3.org/2000/svg" xmlns:xlink="http://www.w3.org/1999/xlink" x="0px" y="0px" viewBox="0 0 30.7 30.8"
	 enable-background="new 0 0 30.7 30.8" xml:space="preserve">
<path id="SvgjsPath1010" fill="#427BE7" d="M21.9,29.3L5,12.6c-0.2-0.2-0.2-0.6,0-0.8c0.2-0.2,0.6-0.2,0.8,0l16.7,16.5l2.1,0.7
	l-0.7-2.1L7.4,10.5c-0.2-0.2-0.2-0.6,0-0.8c0.2-0.2,0.6-0.2,0.8,0L25,26.2l1.6,4.6L21.9,29.3z M16.4,17c-0.2-0.2-0.2-0.6,0-0.9
	l7-6.9l-2-2L14.5,14c-0.3,0.2-0.6,0.2-0.9,0c-0.3-0.2-0.3-0.6,0-0.9l7.7-7.6l3.8,3.7L17.3,17c-0.1,0.1-0.3,0.2-0.4,0.2
	C16.7,17.2,16.5,17.1,16.4,17z M4.9,29.3l-3.8-3.7l7.8-7.7c0.3-0.2,0.6-0.2,0.9,0c0.3,0.2,0.3,0.6,0,0.9l-1,1l0.6,0.6
	c0.2,0.2,0.2,0.6,0,0.9c-0.1,0.1-0.3,0.2-0.4,0.2s-0.3-0.1-0.4-0.2l-0.6-0.6l-1,1l0.6,0.6c0.2,0.2,0.2,0.6,0,0.9
	c-0.1,0.1-0.3,0.2-0.4,0.2S6.7,23.1,6.6,23L6,22.4l-1.2,1.1l0.6,0.6c0.2,0.2,0.2,0.6,0,0.9c-0.1,0.1-0.3,0.2-0.4,0.2
	S4.7,25.1,4.5,25L4,24.4l-1.1,1.1l2,2l6.9-6.8c0.3-0.2,0.6-0.2,0.9,0c0.2,0.2,0.2,0.6,0,0.9L4.9,29.3z M21.2,13.9l4.5-4.4l0.3,1
	c0.2,0.5,0.2,1.1,0,1.7v0c0,0.5,0,1.3,0.2,1.5l3.6,3.6c1.2,1.2,1.2,3.1,0,4.3L29.4,22L21.2,13.9z M29.3,20.2
	c0.3-0.7,0.2-1.5-0.4-2.1l-3.6-3.6c-0.5-0.5-0.5-1.4-0.6-2.3l0-0.1L23,13.9L29.3,20.2z M10.3,1.4c0.2-0.1,0.5-0.2,0.8-0.2
	c0.5,0,1,0.2,1.3,0.5L16,5.4c0.5,0.5,1.4,0.5,2.3,0.6h0.1l-1.8,1.7L10.3,1.4z M1.3,9L0.2,7.8C0.1,7.7,0,7.6,0,7.4
	C0,7.3,0.1,7.1,0.2,7l2.3-2.2c0.1-0.1,0.3-0.2,0.4-0.2c0.2,0,0.3,0.1,0.4,0.2l1.1,1.1c0.2,0.2,0.2,0.6,0,0.8c-0.2,0.2-0.6,0.2-0.9,0
	L2.9,6L1.5,7.4l0.7,0.7c0.2,0.2,0.2,0.6,0,0.8C2,9.1,1.9,9.1,1.7,9.1C1.6,9.1,1.4,9.1,1.3,9z M3.7,11.4c-0.2-0.2-0.2-0.6,0-0.8
	l2.4-2.2c0.2-0.2,0.6-0.2,0.8,0c0.2,0.2,0.2,0.6,0,0.8l-2.4,2.2c-0.1,0.1-0.3,0.2-0.4,0.2C3.9,11.6,3.8,11.5,3.7,11.4z M2.4,10.2
	c-0.2-0.2-0.2-0.6,0-0.8l2.4-2.2c0.2-0.2,0.6-0.2,0.9,0c0.2,0.2,0.2,0.6,0,0.8l-2.4,2.2c-0.1,0.1-0.3,0.2-0.4,0.2
	C2.7,10.4,2.5,10.3,2.4,10.2z M20.9,8.7c0.2-0.2,0.6-0.2,0.8,0c0.2,0.2,0.2,0.6,0,0.8c-0.2,0.2-0.6,0.2-0.8,0
	C20.6,9.3,20.6,9,20.9,8.7z M16.6,9.4L21.1,5l-1-0.3c-0.5-0.2-1.1-0.2-1.6,0h0c-0.5,0-1.3-0.1-1.5-0.2l-3.7-3.6
	C12.7,0.3,11.9,0,11.1,0S9.5,0.3,8.9,0.9L8.5,1.3L16.6,9.4z"/>
</svg>
