<?xml version="1.0" encoding="utf-8"?>
<!-- Generator: Adobe Illustrator 19.0.0, SVG Export Plug-In . SVG Version: 6.00 Build 0)  -->
<svg version="1.1" id="SvgjsSvg1008" xmlns:svgjs="http://svgjs.com/svgjs"
	 xmlns="http://www.w3.org/2000/svg" xmlns:xlink="http://www.w3.org/1999/xlink" x="0px" y="0px" viewBox="-295 386 20 20"
	 enable-background="new -295 386 20 20" xml:space="preserve">
<title>Combined Shape</title>
<desc>Created with Avocode.</desc>
<path id="SvgjsPath1010" fill="#427BE7" d="M-279,398v5c0,0.4-0.7,1-1,1h-12c-0.5,0-1-0.5-1-1v-12c0-0.5,0.5-1,1-1h6
	c0.5,0,1-0.5,1-1s-0.5-1-1-1h-6c-1.5,0-3,1.5-3,3v12c0,1.5,1.5,3,3,3h12c1.5,0,3-1.5,3-3v-5c0-0.5-0.5-1-1-1S-279,397.5-279,398z
	 M-292,402.4l6.1-1.2c0.4-0.1,0.7-0.3,0.9-0.5l10-10l-0.1-0.5c-0.3-2.2-2-3.9-4.1-4.2l-0.5-0.1l-10,10c-0.2,0.2-0.4,0.5-0.5,0.9
	L-292,402.4z M-278.9,388.1c0.9,0.3,1.6,1,1.9,1.9l-9.2,9.2l-2.7,0.5l0.8-2.3l0-0.1L-278.9,388.1z"/>
</svg>
