<?xml version="1.0" encoding="utf-8"?>
<!-- Generator: Adobe Illustrator 18.0.0, SVG Export Plug-In . SVG Version: 6.00 Build 0)  -->
<!DOCTYPE svg PUBLIC "-//W3C//DTD SVG 1.1//EN" "http://www.w3.org/Graphics/SVG/1.1/DTD/svg11.dtd">
<svg version="1.1" id="SvgjsSvg1029" xmlns:svgjs="http://svgjs.com/svgjs"
	 xmlns="http://www.w3.org/2000/svg" xmlns:xlink="http://www.w3.org/1999/xlink" x="0px" y="0px" viewBox="0 0 25 15.5"
	 enable-background="new 0 0 25 15.5" xml:space="preserve">
<path id="SvgjsPath1031" fill="#427BE7" d="M7.8,0c1.9-0.1,3.7,0.7,5.2,1.9c-0.6,0.7-1.3,1.4-2,2c-1.8-1.2-4.3-1.6-6-0.2
	c-2.5,1.8-2.6,5.9-0.2,7.8c2.4,2.1,6.8,1.1,7.5-2.2c-1.5,0-3,0-4.4,0c0-0.9,0-1.8,0-2.7c2.5,0,4.9,0,7.4,0c0.2,2.1-0.1,4.3-1.4,6
	C11.8,15.4,8,16.2,4.9,15c-3-1.2-5.2-4.4-4.9-7.6C0.1,3.4,3.8-0.1,7.8,0z M22.8,4.8c0,0.7,0,1.5,0,2.2c0.7,0,1.5,0,2.2,0v2.2
	c-0.7,0-1.5,0-2.2,0c0,0.7,0,1.5,0,2.2h-2.2c0-0.7,0-1.5,0-2.2c-0.7,0-1.5,0-2.2,0V7c0.7,0,1.5,0,2.2,0c0-0.7,0-1.5,0-2.2H22.8z"/>
</svg>
