<?xml version="1.0" encoding="utf-8"?>
<!-- Generator: Adobe Illustrator 19.0.0, SVG Export Plug-In . SVG Version: 6.00 Build 0)  -->
<svg version="1.1" id="SvgjsSvg1011" xmlns:svgjs="http://svgjs.com/svgjs"
	 xmlns="http://www.w3.org/2000/svg" xmlns:xlink="http://www.w3.org/1999/xlink" x="0px" y="0px" viewBox="-295 387 20 18.1"
	 style="enable-background:new -295 387 20 18.1;" xml:space="preserve">
<style type="text/css">
	.st0{fill:#427BE7;}
</style>
<path id="SvgjsPath1013" class="st0" d="M-290,389c-1.4,0-3,1.8-3,3.8c0,2.4,1.6,4.9,4.3,7.3c1,0.9,2.1,1.7,3.2,2.4
	c0.4,0.2,0.6,0.2,1,0c1.1-0.7,2.2-1.5,3.2-2.4c2.7-2.4,4.3-4.9,4.3-7.3c0-2.3-1.3-3.8-3.1-3.8c-1.3-0.1-2.5,0.6-3.2,1.7
	c-0.8,1.2-2.5,1.2-3.3,0.1C-287.4,389.7-288.7,389-290,389z M-280,387c3,0,5,2.6,5,5.8c0,7.1-10,12.3-10,12.3s-10-5.2-10-12.3
	c0-3.2,2.5-5.8,5-5.8c2.9,0,5,2,5,2S-283.1,387-280,387z"/>
</svg>
