<?xml version="1.0" encoding="utf-8"?>
<!-- Generator: Adobe Illustrator 18.0.0, SVG Export Plug-In . SVG Version: 6.00 Build 0)  -->
<!DOCTYPE svg PUBLIC "-//W3C//DTD SVG 1.1//EN" "http://www.w3.org/Graphics/SVG/1.1/DTD/svg11.dtd">
<svg version="1.1" id="SvgjsSvg1035" xmlns:svgjs="http://svgjs.com/svgjs"
	 xmlns="http://www.w3.org/2000/svg" xmlns:xlink="http://www.w3.org/1999/xlink" x="0px" y="0px" viewBox="0 0 22 22"
	 enable-background="new 0 0 22 22" xml:space="preserve">
<path id="SvgjsPath1037" fill="#427BE7" d="M7,0h8c3.9,0,7,3.1,7,7v8c0,3.9-3.1,7-7,7H7c-3.9,0-7-3.1-7-7V7C0,3.1,3.1,0,7,0z M2,15
	c0,2.8,2.2,5,5,5h8c2.8,0,5-2.2,5-5V7c0-2.8-2.2-5-5-5H7C4.2,2,2,4.2,2,7V15z M11,6c2.8,0,5,2.2,5,5s-2.2,5-5,5s-5-2.2-5-5
	S8.2,6,11,6z M11,14c1.6,0,3-1.3,3-3s-1.4-3-3-3s-3,1.3-3,3S9.4,14,11,14z M16,6.5C16,5.7,16.7,5,17.5,5S19,5.7,19,6.5
	S18.3,8,17.5,8S16,7.3,16,6.5z"/>
</svg>
