<?xml version="1.0" encoding="utf-8"?>
<!-- Generator: Adobe Illustrator 18.0.0, SVG Export Plug-In . SVG Version: 6.00 Build 0)  -->
<!DOCTYPE svg PUBLIC "-//W3C//DTD SVG 1.1//EN" "http://www.w3.org/Graphics/SVG/1.1/DTD/svg11.dtd">
<svg version="1.1" id="SvgjsSvg1008" xmlns:svgjs="http://svgjs.com/svgjs"
	 xmlns="http://www.w3.org/2000/svg" xmlns:xlink="http://www.w3.org/1999/xlink" x="0px" y="0px" viewBox="0 0 34 34"
	 enable-background="new 0 0 34 34" xml:space="preserve">
<path id="SvgjsPath1010" fill="#427BE7" d="M1,20h11v-1h4v1h2v-1h4v1h8.3v-2c0-1-0.6-1.8-1.3-1.8c-0.9,0-1.3,0.4-1.3,1.3
	c0,0.4-0.3,0.8-0.8,0.8s-0.8-0.3-0.8-0.8c0-1.6,1-2.8,2.8-2.8c1.5,0,2.8,1.4,2.8,3.3v2H33c0.5,0,1,0.4,1,1v12c0,0.6-0.5,1-1,1H1
	c-0.5,0-1-0.4-1-1V21C0,20.4,0.5,20,1,20z M13.5,3.5V1c0-0.5,0.4-1,1-1h4c0.5,0,1,0.4,1,1v2.5L24,7v4c0,0.6-0.5,1-1,1H10
	c-0.6,0-1-0.4-1-1V7L13.5,3.5z M1.5,32.5h8.8v-11H1.5V32.5z M23.8,32.5h8.8v-11h-8.8V32.5z M2.8,8.1V4.5c0-0.4,0.3-0.8,0.8-0.8
	s0.8,0.3,0.8,0.8v3.6C5.8,8.4,7,9.8,7,11.5C7,13.4,5.4,15,3.5,15S0,13.4,0,11.5C0,9.8,1.2,8.4,2.8,8.1z M14.4,4.7l-3.3,2.6h10.8
	l-3.3-2.6L18,4.2V1.5h-3v2.7L14.4,4.7z M11.8,32.5h10.5v-4.8H11.8V32.5z M22.3,26.3v-4.8H11.8v4.8H22.3z M10.5,8.8v1.8h12V8.8H10.5z
	 M5.5,11.5c0-1.1-0.9-2-2-2s-2,0.9-2,2s0.9,2,2,2S5.5,12.6,5.5,11.5z M26,24c0-0.6,0.4-1,1-1s1,0.4,1,1s-0.4,1-1,1S26,24.6,26,24z
	 M19,24c0-0.6,0.4-1,1-1s1,0.4,1,1s-0.4,1-1,1S19,24.6,19,24z M13,24c0-0.6,0.4-1,1-1s1,0.4,1,1s-0.4,1-1,1S13,24.6,13,24z M16,24
	c0-0.6,0.4-1,1-1s1,0.4,1,1s-0.4,1-1,1S16,24.6,16,24z M6,24c0-0.6,0.4-1,1-1s1,0.4,1,1s-0.4,1-1,1S6,24.6,6,24z"/>
</svg>
