<?xml version="1.0" encoding="utf-8"?>
<!-- Generator: Adobe Illustrator 18.0.0, SVG Export Plug-In . SVG Version: 6.00 Build 0)  -->
<!DOCTYPE svg PUBLIC "-//W3C//DTD SVG 1.1//EN" "http://www.w3.org/Graphics/SVG/1.1/DTD/svg11.dtd">
<svg version="1.1" id="SvgjsSvg1014" xmlns:svgjs="http://svgjs.com/svgjs"
	 xmlns="http://www.w3.org/2000/svg" xmlns:xlink="http://www.w3.org/1999/xlink" x="0px" y="0px" viewBox="1 0 26 29.3"
	 enable-background="new 1 0 26 29.3" xml:space="preserve">
<path id="SvgjsPath1016" fill="#427BE7" d="M5.8,13.2c0.5,0,1,0,1.5,0.1c0,0,0.1,0,0.2,0c0.1,0,0.2-0.1,0.4-0.1
	C8.3,13,8.7,12.9,9,12.6c0.7-0.6,1.4-1.5,2-2.2l0.4-0.6c0.8-1,1.8-2.3,2.3-3.7c0.3-0.7,0.4-1.4,0.3-2.3c0-0.2,0-0.3,0-0.5
	c0-0.7-0.1-1.3,0.1-1.9c0.3-0.9,1-1.5,2-1.5c0.7,0,1.3,0.3,1.9,0.7c1.3,0.9,2.1,2.7,2.3,4.7c0.1,1.1-0.3,2.1-0.6,3
	c-0.3,0.8-0.6,1.6-0.5,2.4c0,1.3,1.1,1.6,2.6,2c0.2,0,0.3,0.1,0.5,0.1c0.2,0,0.4,0.1,0.5,0.1c1.1,0.2,2.4,0.4,3.4,1.3
	c0.7,0.7,1.1,1.9,0.9,3c-0.1,0.8-0.5,1.5-1.1,1.8c0.4,1.3-0.3,2.9-1.6,3.8c0.1,0.6,0,1.3-0.3,2c-0.4,0.7-1,1.3-1.6,1.6
	c0,1.2-0.8,2.3-2.2,2.7c-0.4,0.1-0.8,0.1-1.2,0.1c-0.7,0-1.3-0.1-2-0.2c-0.2,0-0.4-0.1-0.7-0.1c-0.4-0.1-0.8-0.1-1.2-0.2
	c-0.8-0.1-1.7-0.2-2.5-0.6c-0.6-0.3-1.2-0.7-1.7-1.1c-0.2-0.1-0.3-0.3-0.5-0.4c-0.2-0.1-0.4-0.3-0.5-0.5c-0.3-0.3-0.6-0.6-0.9-0.7
	c-0.3-0.1-0.5-0.1-0.8-0.1c-0.3,0-0.6-0.1-0.8-0.1H7.2c-0.3,0-0.6,0-0.9,0c-0.4,0-0.8,0.1-1.1,0.1c-0.9,0-2.1-0.1-2.8-1.1
	C1.2,23.2,1,21.2,1,19.2v-0.1c0-1.5,0-3.7,1.3-4.8C3.3,13.3,4.8,13.2,5.8,13.2z M8.5,23.9c0.4,0,0.8,0,1.3,0.3
	c0.4,0.1,0.8,0.5,1.1,0.8c0.1,0.1,0.3,0.2,0.4,0.3c0.2,0.1,0.3,0.2,0.5,0.4c0.5,0.4,1,0.8,1.5,1c0.3,0.1,0.6,0.1,0.9,0.2l0.6,0.1
	c1.3,0.2,2.6,0.3,3.8,0.5c0.4,0,0.9,0,1.3-0.1c0.3,0,0.4-0.2,0.5-0.3c0.2-0.3,0.2-0.6,0-1c-0.1-0.2-0.1-0.5,0.1-0.7
	c0.2-0.3,0.6-0.5,0.9-0.5h0l0,0c0,0,0.1,0,0.1,0c0.3,0,0.5-0.2,0.7-0.6c0.2-0.5,0.3-1,0.1-1.3c-0.2-0.2-0.2-0.6-0.1-0.9
	c0.1-0.3,0.3-0.4,0.6-0.5c0.6-0.2,1-0.6,1.2-1.1c0.1-0.5,0.1-1-0.1-1.2c-0.2-0.3-0.2-0.7-0.1-1c0.1-0.3,0.3-0.4,0.6-0.5
	c0.6-0.1,0.8-0.6,0.8-1c0.1-0.7-0.4-1.2-0.9-1.5c-0.8-0.4-1.7-0.6-2.6-0.7c-0.5-0.1-1-0.2-1.5-0.3c-1.6-0.4-2.8-1.7-2.9-3.2
	C17.2,10,17.6,9,17.9,8c0.3-0.8,0.5-1.6,0.6-2.4c0-0.8-0.2-1.6-0.6-2.5c-0.4-0.7-1.1-1.4-1.7-1.4c0,0-0.1,0-0.1,0
	c-0.3,0.1-0.3,0.7-0.3,1.3l0,0.2c0.1,1,0.1,1.9-0.2,2.8c-0.3,1.3-1.1,2.4-1.8,3.5c-0.2,0.2-0.3,0.5-0.5,0.7c-0.7,1-1.6,2.1-2.5,3.1
	c-0.2,0.2-0.4,0.5-0.6,0.6c-0.1,0.1-0.1,0.2-0.2,0.2c-0.6,0.5-1.2,0.7-2,0.9c-0.6,0.1-1.1,0.2-1.3,0.6c-0.5,0.9-0.5,2.1-0.5,3.1V19
	c0,1,0,2.3,0.3,3.3C6.8,23.3,7.3,23.8,8.5,23.9z M2.8,19.2c0,1.5,0.1,3.1,0.8,4.1c0.3,0.4,0.7,0.4,1.4,0.4h0.1
	c-0.4-0.8-0.5-1.7-0.6-2.5c-0.2-1.5-0.1-3,0-4.3C4.6,16.3,4.7,15.6,5,15c-0.5,0.1-1.1,0.2-1.5,0.6c-0.7,0.6-0.7,2.2-0.7,3.2V19.2z"
	/>
</svg>
