<?xml version="1.0" encoding="utf-8"?>
<!-- Generator: Adobe Illustrator 19.0.0, SVG Export Plug-In . SVG Version: 6.00 Build 0)  -->
<svg version="1.1" id="SvgjsSvg1010" xmlns:svgjs="http://svgjs.com/svgjs"
	 xmlns="http://www.w3.org/2000/svg" xmlns:xlink="http://www.w3.org/1999/xlink" x="0px" y="0px" viewBox="-290.1 387.6 21.9 20"
	 style="enable-background:new -290.1 387.6 21.9 20;" xml:space="preserve">
<style type="text/css">
	.st0{fill:#427BE7;}
</style>
<path id="SvgjsPath1015" class="st0" d="M-290.1,396.5c0-0.6,0.4-1,1-1h3c0.6,0,1,0.4,1,1v8c0,0.6-0.4,1-1,1h-3c-0.6,0-1-0.4-1-1
	C-290.1,404.5-290.1,396.5-290.1,396.5z M-283.7,396.9c0-0.9,1.1-1.4,1.1-1.4s2.1-0.7,4.6-2.8s3.2-3.9,3.9-4.9
	c0.3-0.7,2.8,0,2.5,3.9c-0.4,1.8-1.4,3.5-1.4,3.5s2,0.7,3,1c1.1,0.3,2.5,1.8,1.4,3.9s-2.5,5.2-3.3,6.5c-0.9,1.3-2.6,0.9-3.3,0.9
	c-2.5-0.3-6-1.4-6.7-1.7c-1.1-0.4-1.8-1.3-1.8-2.1C-283.7,402.8-283.7,397.8-283.7,396.9z"/>
</svg>
