<?xml version="1.0" encoding="utf-8"?>
<!-- Generator: Adobe Illustrator 18.0.0, SVG Export Plug-In . SVG Version: 6.00 Build 0)  -->
<!DOCTYPE svg PUBLIC "-//W3C//DTD SVG 1.1//EN" "http://www.w3.org/Graphics/SVG/1.1/DTD/svg11.dtd">
<svg version="1.1" id="SvgjsSvg1011" xmlns:svgjs="http://svgjs.com/svgjs"
	 xmlns="http://www.w3.org/2000/svg" xmlns:xlink="http://www.w3.org/1999/xlink" x="0px" y="0px" viewBox="0 0 26.4 32.5"
	 enable-background="new 0 0 26.4 32.5" xml:space="preserve">
<path id="SvgjsPath1013" fill="#427BE7" d="M22.6,22.6c0.6-0.6,0.8-1.4,0.8-2.9c0-0.1,0-0.1,0-0.3c0-1,0-1.5,0.2-1.9
	c0.1-0.4,0.4-0.7,1.1-1.4c0,0,0,0,0.1-0.1c1.2-1.2,1.6-1.9,1.6-2.8c0-1-0.5-1.7-1.7-2.9c-0.7-0.7-1-1-1.1-1.4c0,0,0,0,0,0
	c-0.2-0.4-0.2-0.8-0.2-1.9c0-0.1,0-0.1,0-0.3c0-1.5-0.2-2.3-0.8-2.9c-0.7-0.6-1.4-0.8-2.9-0.8c-0.1,0-0.1,0-0.3,0
	c-1,0-1.5,0-1.9-0.2c-0.4-0.2-0.7-0.4-1.4-1.1c0,0,0,0-0.1-0.1C14.9,0.4,14.2,0,13.2,0c-1,0-1.6,0.4-2.9,1.7c-0.7,0.7-1,1-1.4,1.1
	c0,0,0,0,0,0C8.5,3,8.1,3.1,7.1,3.1c-0.1,0-0.1,0-0.3,0c-1.5,0-2.3,0.2-2.9,0.8C3.2,4.6,3,5.3,3,7.1c0,1.1,0,1.5-0.2,1.9
	c-0.1,0.4-0.4,0.7-1.1,1.4c0,0,0,0-0.1,0.1C0.5,11.6,0,12.3,0,13.2c0,1,0.4,1.7,1.7,2.9c0.7,0.7,1,1,1.1,1.4c0,0,0,0,0,0
	C3,17.9,3,18.4,3,19.4c0,0.1,0,0.1,0,0.3c0,1.5,0.2,2.3,0.8,2.9c0.1,0.1,0.2,0.2,0.3,0.2l-2.9,5c-0.1,0.2-0.1,0.5,0,0.7
	c0.1,0.2,0.3,0.4,0.6,0.4l3.5,0.4l2.1,2.8c0.1,0.2,0.3,0.3,0.6,0.3c0,0,0,0,0,0c0.2,0,0.5-0.2,0.6-0.4l3.4-5.9
	c0.4,0.2,0.8,0.3,1.2,0.3c0.4,0,0.8-0.1,1.2-0.3l3.4,5.9c0.1,0.2,0.3,0.3,0.6,0.4c0,0,0,0,0,0c0.2,0,0.4-0.1,0.6-0.3l2.1-2.8
	l3.5-0.4c0.2,0,0.5-0.2,0.5-0.4c0.1-0.2,0.1-0.5,0-0.7l-2.9-5C22.4,22.8,22.5,22.7,22.6,22.6z M9.5,22.3c-0.5-0.2-1.1-0.3-2-0.3
	c-0.1,0-0.2,0-0.4,0c-1.3,0-1.8-0.1-2.2-0.4c-0.3-0.3-0.4-0.8-0.4-2.2c0-1.3-0.1-1.8-0.3-2.4c-0.2-0.6-0.6-1-1.3-1.8
	c0,0,0,0-0.1-0.1c0,0,0,0-0.1-0.1c-0.9-0.9-1.2-1.3-1.2-1.8c0-0.5,0.3-0.9,1.3-1.9c0.9-0.9,1.2-1.3,1.5-1.9c0.2-0.5,0.3-1.1,0.3-2
	c0-0.1,0-0.2,0-0.4c0-1.3,0.1-1.9,0.4-2.2c0.3-0.3,0.8-0.4,2.2-0.4c1.3,0,1.8,0,2.4-0.3c0.6-0.2,1-0.6,1.8-1.4
	c0.1-0.1,0.1-0.1,0.1-0.1c0,0,0,0,0.1-0.1c0.9-0.9,1.3-1.2,1.8-1.2c0.5,0,0.9,0.3,1.9,1.3C16,3.6,16.4,3.9,17,4.2
	c0.5,0.2,1.1,0.3,2,0.3c0.1,0,0.2,0,0.4,0c1.3,0,1.8,0.1,2.2,0.4C21.9,5.2,22,5.7,22,7.1c0,1.3,0.1,1.8,0.3,2.4
	c0.2,0.6,0.6,1,1.3,1.8c0,0.1,0,0.1,0.1,0.1c0,0,0,0,0.1,0.1c0.9,0.9,1.2,1.3,1.2,1.8c0,0.5-0.3,0.9-1.3,1.9
	c-0.9,0.9-1.2,1.3-1.5,1.9C22,17.5,22,18.1,22,19c0,0.1,0,0.2,0,0.4c0,1.3-0.1,1.9-0.4,2.2c-0.3,0.3-0.8,0.4-2.2,0.4
	c-1.3,0-1.8,0.1-2.4,0.3c-0.6,0.2-1,0.6-1.8,1.4c-0.1,0-0.1,0-0.1,0.1c-1,1-1.4,1.3-1.9,1.3c-0.5,0-0.9-0.3-1.9-1.3
	C10.5,22.9,10.1,22.5,9.5,22.3z M10.1,18.8c0.2,0,0.4,0,0.6-0.1l0.1,0l2.1-1.1l2.1,1.1c1.2,0.6,2.5-0.4,2.3-1.7l-0.4-2.4l1.7-1.7
	c0.9-0.9,0.4-2.5-0.8-2.7l-2.4-0.4l-1.1-2.1c-0.6-1.2-2.3-1.2-2.9,0l-1.1,2.1l-2.4,0.4c-1.3,0.3-1.8,1.8-0.9,2.8l1.7,1.7l-0.4,2.3
	c-0.1,0.9,0.5,1.8,1.4,1.9L10.1,18.8z M6.3,28.3C6.2,28.1,6,28,5.8,28l-2.7-0.3l2.5-4.3c0.4,0.1,0.8,0.1,1.5,0.1c0.1,0,0.1,0,0.2,0
	c0.3,0,0.5,0,0.7,0l-1.7,3c-0.2,0.3-0.1,0.8,0.3,1c0.1,0.1,0.2,0.1,0.4,0.1c0.3,0,0.5-0.1,0.6-0.4l1.9-3.3c0.2,0.2,0.5,0.4,1,0.9
	c0.2,0.3,0.4,0.4,0.5,0.5l-3,5.1L6.3,28.3z M20.2,28.3l-1.6,2.2l-3-5.1c0.1-0.1,0.3-0.3,0.5-0.5c0.5-0.5,0.8-0.8,1-0.9l1.9,3.4
	c0.1,0.2,0.4,0.4,0.6,0.4c0.1,0,0.3,0,0.4-0.1c0.3-0.2,0.5-0.6,0.3-1l-1.7-3c0.2,0,0.4,0,0.8,0c0.1,0,0.1,0,0.3,0
	c0.5,0,0.9,0,1.2-0.1l2.5,4.3L20.7,28C20.5,28,20.3,28.1,20.2,28.3z M18.2,23.5l0.2-0.4l0.2,0.3C18.5,23.5,18.3,23.5,18.2,23.5z
	 M23.7,27.6L23.5,28l-0.2-0.3L23.7,27.6z M8.2,23.1l0.2,0.4c-0.1,0-0.2,0-0.4,0L8.2,23.1z M2.9,28l-0.2-0.4l0.4,0L2.9,28z
	 M18.7,30.8l-0.4,0l0.2-0.3L18.7,30.8z M8.1,30.7l-0.4,0l0.2-0.3L8.1,30.7z M9.2,23.8l0.1-0.2l0.2,0.1c0,0,0,0,0,0l-0.1,0.2
	C9.3,23.8,9.2,23.8,9.2,23.8z M17.1,23.7C17,23.6,17,23.6,17.1,23.7l0.2-0.2l0.1,0.2c-0.1,0-0.1,0.1-0.2,0.1L17.1,23.7z M11,25.1
	l0,0.3c-0.1,0-0.1-0.1-0.2-0.1L11,25.1z M15.4,25.4l0-0.3l0.1,0.2C15.5,25.3,15.5,25.4,15.4,25.4z M5.4,23.3l0.3-0.1l-0.1,0.2
	C5.5,23.4,5.4,23.3,5.4,23.3z M20.8,23.2l0.3,0.1c-0.1,0-0.1,0-0.2,0L20.8,23.2z M9.5,23.7C9.5,23.6,9.5,23.6,9.5,23.7
	C9.5,23.7,9.5,23.7,9.5,23.7L9.5,23.7z M10.1,17.3c-0.1,0-0.1-0.1-0.1-0.1l0.5-3.1l-2.2-2.2c-0.1-0.1,0-0.2,0.1-0.2l3.1-0.5l1.4-2.8
	c0-0.1,0.2-0.1,0.2,0l1.4,2.8l3.1,0.5c0.1,0,0.1,0.1,0.1,0.2L15.5,14l0.5,3.1c0,0.1-0.1,0.2-0.2,0.1L13,15.8L10.1,17.3
	C10.1,17.3,10.1,17.3,10.1,17.3z"/>
</svg>
