<?xml version="1.0" encoding="utf-8"?>
<!-- Generator: Adobe Illustrator 18.0.0, SVG Export Plug-In . SVG Version: 6.00 Build 0)  -->
<!DOCTYPE svg PUBLIC "-//W3C//DTD SVG 1.1//EN" "http://www.w3.org/Graphics/SVG/1.1/DTD/svg11.dtd">
<svg version="1.1" id="SvgjsSvg1026" xmlns:svgjs="http://svgjs.com/svgjs"
	 xmlns="http://www.w3.org/2000/svg" xmlns:xlink="http://www.w3.org/1999/xlink" x="0px" y="0px" viewBox="1 0 12 20.7"
	 enable-background="new 1 0 12 20.7" xml:space="preserve">
<path id="SvgjsPath1028" fill="#427BE7" d="M12.3,5.3C12.3,2.4,9.9,0,7,0S1.7,2.4,1.7,5.3c0,3,2.4,5.3,5.3,5.3S12.3,8.3,12.3,5.3z
	 M9.2,5.3c0,1.2-1,2.2-2.2,2.2s-2.2-1-2.2-2.2s1-2.2,2.2-2.2S9.2,4.1,9.2,5.3z M12.3,13.8c0.7-0.5,1-1.4,0.5-2.2
	c-0.5-0.7-1.4-0.9-2.2-0.5c-2.2,1.4-5,1.4-7.2,0c-0.7-0.5-1.7-0.2-2.2,0.5c-0.5,0.7-0.2,1.7,0.5,2.2c1,0.6,2,1,3.1,1.3l-3,3
	c-0.6,0.6-0.6,1.6,0,2.2c0.3,0.3,0.7,0.5,1.1,0.5c0.4,0,0.8-0.2,1.1-0.5L7,17.3l2.9,2.9c0.6,0.6,1.6,0.6,2.2,0s0.6-1.6,0-2.2l-3-3
	C10.3,14.8,11.3,14.4,12.3,13.8z"/>
</svg>
