<?xml version="1.0" encoding="utf-8"?>
<!-- Generator: Adobe Illustrator 18.0.0, SVG Export Plug-In . SVG Version: 6.00 Build 0)  -->
<!DOCTYPE svg PUBLIC "-//W3C//DTD SVG 1.1//EN" "http://www.w3.org/Graphics/SVG/1.1/DTD/svg11.dtd">
<svg version="1.1" id="SvgjsSvg1000" xmlns:svgjs="http://svgjs.com/svgjs"
	 xmlns="http://www.w3.org/2000/svg" xmlns:xlink="http://www.w3.org/1999/xlink" x="0px" y="0px" viewBox="0 0 13.7 26.8"
	 enable-background="new 0 0 13.7 26.8" xml:space="preserve">
<path id="SvgjsPath1007" fill="#427BE7" d="M7.7,2.3c0.3-0.2,0.5-0.6,0.5-1C8.2,0.6,7.6,0,6.9,0C6.2,0,5.6,0.6,5.6,1.3
	c0,0.4,0.2,0.7,0.4,0.9c-0.7,1.4-3.8,7.4-5.8,9.8c0,0-0.1,0.1-0.1,0.1C0,12.4,0,12.8,0.1,13c0.1,0.1,2,3.3,2.2,9.7H1.9
	c-0.4,0-0.8,0.4-0.8,0.8v2.5c0,0.5,0.4,0.8,0.8,0.8h9.5c0.5,0,0.8-0.4,0.8-0.8v-2.5c0-0.5-0.4-0.8-0.8-0.8h-0.3
	c0.3-3.8,1.1-8.3,2.4-9.5c0.3-0.3,0.3-0.7,0.1-1C12.2,10,8.6,4.4,7.7,2.3z M2.7,25.1v-0.8h7.9v0.8H2.7z M3.9,22.7
	c-0.1-5.5-1.5-8.8-2.1-10c1.5-2,3.4-5.5,4.6-7.8v4.9C6,10,5.7,10.4,5.7,10.8c0,0.6,0.5,1.2,1.2,1.2C7.5,12,8,11.5,8,10.8
	c0-0.5-0.3-0.9-0.7-1.1V5.1c1.5,2.6,3.7,6.1,4.6,7.4c-1.5,2.2-2.2,7.3-2.4,10.2H3.9z"/>
</svg>
