<?xml version="1.0" encoding="utf-8"?>
<!-- Generator: Adobe Illustrator 19.0.0, SVG Export Plug-In . SVG Version: 6.00 Build 0)  -->
<svg version="1.1" id="SvgjsSvg1020" xmlns:svgjs="http://svgjs.com/svgjs"
	 xmlns="http://www.w3.org/2000/svg" xmlns:xlink="http://www.w3.org/1999/xlink" x="0px" y="0px" viewBox="-293 386 21.1 21"
	 style="enable-background:new -293 386 21.1 21;" xml:space="preserve">
<style type="text/css">
	.st0{fill:#427BE7;}
</style>
<path id="SvgjsPath1022" class="st0" d="M-277,400.1c0,0-0.1-0.1-0.1-0.1c-0.1,0-0.1,0-0.2,0.1l-2.3,2.3l-1.3-0.7
	c-1.6-0.9-2.7-1.6-3.9-2.8s-1.9-2.3-2.8-3.9l-0.7-1.3l1.1-1.1l1.2-1.2c0.1-0.1,0.1-0.3,0-0.3l-3-3.1c0,0-0.1,0-0.1,0
	c-0.1,0-0.1,0-0.2,0.1l-0.1,0.1c-0.1,0.1-0.3,0.3-0.6,0.6c-0.4,0.5-0.6,1.2-0.8,2c-0.5,2.5,0.8,5.2,4.9,9.3c2.1,2.1,4.1,3.4,6.1,4.2
	c1.3,0.5,2.4,0.7,3.1,0.7c0.1,0,0.2,0,0.2,0c1.3-0.1,1.8-0.4,2.5-1.4c0.2-0.2,0.2-0.4,0.1-0.5L-277,400.1z M-272.5,401.8
	c0.8,0.8,0.8,2.1,0,3.1c-0.6,0.8-1.5,1.8-3.8,2.1c0,0-0.2,0-0.5,0c-1.2,0-5.5-0.4-10.6-5.5c-4.5-4.5-6.1-7.8-5.4-11.1
	c0.5-2.4,1.8-3.6,2.1-3.8c0.4-0.4,1-0.6,1.6-0.6s1.1,0.2,1.5,0.6l3,3c0.9,0.9,0.9,2.3,0,3.2l-1.2,1.2c0.5,0.9,1.2,2.1,2.5,3.4
	c1.3,1.3,2.5,2,3.4,2.5l1.2-1.2c0.4-0.4,1-0.7,1.6-0.7c0.6,0,1.1,0.2,1.6,0.6L-272.5,401.8z"/>
</svg>
