<?xml version="1.0" encoding="utf-8"?>
<!-- Generator: Adobe Illustrator 18.0.0, SVG Export Plug-In . SVG Version: 6.00 Build 0)  -->
<!DOCTYPE svg PUBLIC "-//W3C//DTD SVG 1.1//EN" "http://www.w3.org/Graphics/SVG/1.1/DTD/svg11.dtd">
<svg version="1.1" id="SvgjsSvg1000" xmlns:svgjs="http://svgjs.com/svgjs"
	 xmlns="http://www.w3.org/2000/svg" xmlns:xlink="http://www.w3.org/1999/xlink" x="0px" y="0px" viewBox="0 0 12 16.1"
	 enable-background="new 0 0 12 16.1" xml:space="preserve">
<title>Combined Shape</title>
<desc>Created with Avocode.</desc>
<path id="SvgjsPath1007" fill="#427BE7" d="M6.6,11.7c2-0.3,3.5-2.1,3.5-4.1c0-0.5-0.1-1-0.2-1.4C9.7,5.7,9.9,5.1,10.4,5
	c0.5-0.2,1.1,0.1,1.2,0.6c0.2,0.7,0.3,1.3,0.3,2c0,3.2-2.4,5.8-5.5,6.1l0.8,0.8c0.4,0.4,0.4,1,0,1.4c-0.2,0.2-0.5,0.3-0.7,0.3
	S6.1,16,5.9,15.9l-2.4-2.4c-0.4-0.4-0.4-1,0-1.4l2.4-2.4c0.4-0.4,1-0.4,1.4,0c0.4,0.4,0.4,1,0,1.4L6.6,11.7z M1.3,11.2
	c-0.4,0-0.8-0.2-0.9-0.6C0.1,9.9,0,9.2,0,8.5c0-3.2,2.4-5.8,5.5-6.1L4.8,1.6c-0.4-0.4-0.4-1,0-1.4c0.4-0.4,1-0.4,1.4,0l2.4,2.4
	c0.2,0.2,0.3,0.4,0.3,0.7c0,0.2-0.1,0.5-0.3,0.7L6.2,6.5C6,6.7,5.7,6.8,5.5,6.8C5.2,6.8,5,6.7,4.8,6.6c-0.4-0.4-0.4-1,0-1.4l0.8-0.9
	C3.6,4.6,2,6.4,2,8.5C2,9,2,9.5,2.2,9.9c0.2,0.5-0.1,1.1-0.6,1.2C1.5,11.2,1.4,11.2,1.3,11.2z"/>
</svg>
