<?xml version="1.0" encoding="UTF-8" standalone="no"?>
<svg width="24px" height="24px" viewBox="0 0 24 24" version="1.1" xmlns="http://www.w3.org/2000/svg" xmlns:xlink="http://www.w3.org/1999/xlink">
    <!-- Generator: Sketch 40 (33762) - http://www.bohemiancoding.com/sketch -->
    <title>Combined Shape</title>
    <desc>Created with Sketch.</desc>
    <defs></defs>
    <g id="Руководство-Ресурсы" stroke="none" stroke-width="1" fill="none" fill-rule="evenodd">
        <g id="Guidelines/UI_Kit" transform="translate(-602.000000, -70.000000)" fill="#427BE7">
            <path d="M608.357864,74.4603174 C608.357864,74.4603174 613.357864,69.4098124 614.357864,68.3997114 C615.357864,67.3896104 616.357864,67.3896104 617.357864,68.3997114 C618.357864,69.4098124 623.357864,74.4603174 623.357864,74.4603174 L623.357864,90.644353 C623.357864,91.7476979 622.464467,92.6421356 621.36598,92.6421356 L610.349749,92.6421356 C609.249661,92.6421356 608.357864,91.7404964 608.357864,90.644353 L608.357864,74.4603174 Z M610.357864,75.4704185 L615.857864,69.9148629 L621.357864,75.4704185 L621.357864,90.6219336 L610.357864,90.6219336 L610.357864,75.4704185 Z M615.857864,76.7330447 C617.238576,76.7330447 618.357864,75.6024506 618.357864,74.2077922 C618.357864,72.8131337 617.238576,71.6825397 615.857864,71.6825397 C614.477153,71.6825397 613.357864,72.8131337 613.357864,74.2077922 C613.357864,75.6024506 614.477153,76.7330447 615.857864,76.7330447 Z M615.857864,75.1421356 C616.410149,75.1421356 616.857864,74.6944204 616.857864,74.1421356 C616.857864,73.5898509 616.410149,73.1421356 615.857864,73.1421356 C615.30558,73.1421356 614.857864,73.5898509 614.857864,74.1421356 C614.857864,74.6944204 615.30558,75.1421356 615.857864,75.1421356 Z M613.357864,83.6421356 C614.462434,83.6421356 615.357864,82.7467051 615.357864,81.6421356 C615.357864,80.5375661 614.462434,79.6421356 613.357864,79.6421356 C612.253295,79.6421356 611.357864,80.5375661 611.357864,81.6421356 C611.357864,82.7467051 612.253295,83.6421356 613.357864,83.6421356 Z M618.357864,88.6421356 C619.462434,88.6421356 620.357864,87.7467051 620.357864,86.6421356 C620.357864,85.5375661 619.462434,84.6421356 618.357864,84.6421356 C617.253295,84.6421356 616.357864,85.5375661 616.357864,86.6421356 C616.357864,87.7467051 617.253295,88.6421356 618.357864,88.6421356 Z M611.888194,87.9506403 C611.595301,87.6577471 611.599179,87.1789957 611.89249,86.8856848 L618.601414,80.1767611 C618.896679,79.8814956 619.371434,79.8775305 619.666369,80.1724657 C619.959262,80.4653589 619.955385,80.9441104 619.662074,81.2374212 L612.95315,87.9463449 C612.657885,88.2416104 612.18313,88.2455755 611.888194,87.9506403 Z M613.357864,82.1421356 C613.634007,82.1421356 613.857864,81.918278 613.857864,81.6421356 C613.857864,81.3659932 613.634007,81.1421356 613.357864,81.1421356 C613.081722,81.1421356 612.857864,81.3659932 612.857864,81.6421356 C612.857864,81.918278 613.081722,82.1421356 613.357864,82.1421356 Z M618.357864,87.1421356 C618.634007,87.1421356 618.857864,86.918278 618.857864,86.6421356 C618.857864,86.3659932 618.634007,86.1421356 618.357864,86.1421356 C618.081722,86.1421356 617.857864,86.3659932 617.857864,86.6421356 C617.857864,86.918278 618.081722,87.1421356 618.357864,87.1421356 Z" id="Combined-Shape" transform="translate(615.857864, 80.142136) rotate(45.000000) translate(-615.857864, -80.142136) "></path>
        </g>
    </g>
</svg>