<?xml version="1.0" encoding="utf-8"?>
<!-- Generator: Adobe Illustrator 19.0.0, SVG Export Plug-In . SVG Version: 6.00 Build 0)  -->
<svg version="1.1" id="SvgjsSvg1014" xmlns:svgjs="http://svgjs.com/svgjs"
	 xmlns="http://www.w3.org/2000/svg" xmlns:xlink="http://www.w3.org/1999/xlink" x="0px" y="0px" viewBox="-295 387 19 19"
	 style="enable-background:new -295 387 19 19;" xml:space="preserve">
<style type="text/css">
	.st0{fill:#427BE7;}
</style>
<path id="SvgjsPath1016" class="st0" d="M-277.7,405.7c0.4,0.4,1,0.4,1.4,0c0.4-0.4,0.4-1,0-1.4l-5-5c0,0,0,0,0,0
	c1-1.3,1.6-2.9,1.6-4.6c0-4.2-3.4-7.6-7.6-7.6c-4.2,0-7.6,3.4-7.6,7.6c0,4.2,3.4,7.6,7.6,7.6c1.7,0,3.3-0.6,4.6-1.6c0,0,0,0,0,0
	L-277.7,405.7z M-287.4,400.3c-3.1,0-5.6-2.5-5.6-5.6c0-3.1,2.5-5.6,5.6-5.6c3.1,0,5.6,2.5,5.6,5.6
	C-281.8,397.7-284.3,400.3-287.4,400.3z"/>
</svg>
