<?xml version="1.0" encoding="utf-8"?>
<!-- Generator: Adobe Illustrator 18.0.0, SVG Export Plug-In . SVG Version: 6.00 Build 0)  -->
<!DOCTYPE svg PUBLIC "-//W3C//DTD SVG 1.1//EN" "http://www.w3.org/Graphics/SVG/1.1/DTD/svg11.dtd">
<svg version="1.1" id="SvgjsSvg1014" xmlns:svgjs="http://svgjs.com/svgjs"
	 xmlns="http://www.w3.org/2000/svg" xmlns:xlink="http://www.w3.org/1999/xlink" x="0px" y="0px" viewBox="0 0 24 24"
	 enable-background="new 0 0 24 24" xml:space="preserve">
<path id="SvgjsPath1016" fill="#427BE7" d="M12.7,0c1.4,0,2.5,1.1,2.6,2.4l0.1,0.2C15.7,2.7,16,2.8,16.3,3l0.2-0.1
	C17.5,2,19,2.1,20,3.1L21,4c1,1,1,2.5,0.2,3.6L21,7.7c0.1,0.3,0.3,0.6,0.4,0.9l0.2,0.1C23,8.8,24,10,24,11.3v1.3
	c0,1.4-1,2.5-2.4,2.6l-0.2,0.1c-0.1,0.3-0.2,0.6-0.4,0.9l0.1,0.2C22,17.5,21.9,19,21,20L20,21c-1,1-2.5,1-3.6,0.2L16.3,21
	c-0.3,0.1-0.6,0.3-0.9,0.4l-0.1,0.2C15.2,23,14,24,12.7,24h-1.3c-1.4,0-2.5-1-2.6-2.4l-0.1-0.2C8.3,21.3,8,21.2,7.7,21l-0.2,0.1
	C6.5,22,5,21.9,4,21L3,20c-0.5-0.5-0.8-1.2-0.8-1.9c0-0.6,0.2-1.2,0.6-1.7L3,16.3c-0.1-0.3-0.3-0.6-0.4-0.9l-0.2-0.1
	C1,15.2,0,14,0,12.7v-1.3C0,10,1,8.8,2.4,8.7l0.2-0.1C2.7,8.3,2.8,8,3,7.7L2.9,7.6C2.5,7.1,2.3,6.5,2.3,5.9C2.3,5.2,2.5,4.5,3,4
	L4,3.1c1-1,2.5-1.1,3.6-0.2L7.7,3C8,2.8,8.3,2.7,8.6,2.6l0.1-0.2C8.8,1.1,10,0,11.3,0H12.7z M11.3,2c-0.4,0-0.6,0.3-0.7,0.6l0,0.2
	l-0.1,0.2l-0.1,0.2l-0.3,0.9L9.3,4.5C9,4.6,8.8,4.7,8.6,4.8L7.7,5.2L6.9,4.8L6.7,4.7L6.5,4.6L6.3,4.4C6,4.2,5.6,4.2,5.4,4.5L4.5,5.4
	C4.3,5.5,4.3,5.7,4.3,5.9c0,0.1,0,0.3,0.1,0.4l0.1,0.2l0.1,0.2l0.1,0.2l0.4,0.9L4.8,8.6C4.7,8.8,4.6,9,4.5,9.3l-0.3,0.9l-1.3,0.4
	l-0.2,0C2.3,10.7,2,11,2,11.3v1.3c0,0.3,0.3,0.6,0.6,0.7l0.2,0l1.3,0.4l0.3,0.9c0.1,0.2,0.2,0.5,0.3,0.7l0.4,0.9l-0.4,0.9l-0.1,0.2
	l-0.1,0.2l-0.1,0.2c-0.1,0.1-0.1,0.3-0.1,0.4c0,0.2,0.1,0.4,0.2,0.5l0.9,0.9c0.2,0.2,0.6,0.3,0.9,0l0.2-0.1l0.2-0.1l0.2-0.1l0.9-0.4
	l0.9,0.4c0.2,0.1,0.5,0.2,0.7,0.3l0.9,0.3l0.3,0.9l0.1,0.2l0.1,0.2l0,0.2c0,0.3,0.3,0.6,0.7,0.6h1.3c0.3,0,0.6-0.3,0.7-0.6l0-0.2
	l0.1-0.2l0.4-1.1l0.9-0.3c0.2-0.1,0.4-0.2,0.7-0.3l0.9-0.4l0.9,0.4l0.4,0.2l0.2,0.1c0.3,0.2,0.7,0.2,0.9,0l0.9-0.9
	c0.3-0.2,0.3-0.6,0-0.9l-0.1-0.2l-0.1-0.2l-0.1-0.2l-0.4-0.9l0.4-0.9c0.1-0.2,0.2-0.5,0.3-0.7l0.3-0.9l0.9-0.3l0.2-0.1l0.2-0.1
	l0.2,0c0.3,0,0.6-0.3,0.6-0.7v-1.3c0-0.4-0.3-0.6-0.6-0.7l-0.2,0l-0.2-0.1l-0.2-0.1l-0.9-0.3l-0.3-0.9c-0.1-0.2-0.2-0.5-0.3-0.7
	l-0.4-0.9l0.4-0.9l0.1-0.2l0.1-0.2l0.1-0.2c0.2-0.3,0.2-0.7,0-0.9l-0.9-0.9c-0.2-0.2-0.6-0.3-0.9,0l-0.2,0.1l-0.4,0.2l-0.9,0.4
	l-0.9-0.4c-0.2-0.1-0.5-0.2-0.7-0.3l-0.9-0.3l-0.3-0.9l-0.1-0.4l0-0.2C13.3,2.3,13,2,12.7,2H11.3z M8,12c0-2.2,1.8-4,4-4s4,1.8,4,4
	s-1.8,4-4,4S8,14.2,8,12z M14,12c0-1.1-0.9-2-2-2s-2,0.9-2,2s0.9,2,2,2S14,13.1,14,12z"/>
</svg>
