<?xml version="1.0" encoding="utf-8"?>
<!-- Generator: Adobe Illustrator 18.0.0, SVG Export Plug-In . SVG Version: 6.00 Build 0)  -->
<!DOCTYPE svg PUBLIC "-//W3C//DTD SVG 1.1//EN" "http://www.w3.org/Graphics/SVG/1.1/DTD/svg11.dtd">
<svg version="1.1" id="SvgjsSvg1000" xmlns:svgjs="http://svgjs.com/svgjs"
	 xmlns="http://www.w3.org/2000/svg" xmlns:xlink="http://www.w3.org/1999/xlink" x="0px" y="0px" viewBox="28.9 0 2.1 2"
	 enable-background="new 28.9 0 2.1 2" xml:space="preserve">
<path id="SvgjsPath1007" fill="#427BE7" d="M29.4,2C29.3,2,29.3,2,29.4,2l0.1-0.7L29,0.8c0,0,0,0,0,0l0.7-0.1L30,0c0,0,0,0,0,0
	l0.3,0.6L31,0.7c0,0,0,0,0,0l-0.5,0.5L30.7,2c0,0,0,0,0,0L30,1.7L29.4,2C29.4,2,29.4,2,29.4,2z"/>
</svg>
