<?xml version="1.0" encoding="utf-8"?>
<!-- Generator: Adobe Illustrator 18.0.0, SVG Export Plug-In . SVG Version: 6.00 Build 0)  -->
<!DOCTYPE svg PUBLIC "-//W3C//DTD SVG 1.1//EN" "http://www.w3.org/Graphics/SVG/1.1/DTD/svg11.dtd">
<svg version="1.1" id="SvgjsSvg1011" xmlns:svgjs="http://svgjs.com/svgjs"
	 xmlns="http://www.w3.org/2000/svg" xmlns:xlink="http://www.w3.org/1999/xlink" x="0px" y="0px" viewBox="1 0 26.8 24.7"
	 enable-background="new 1 0 26.8 24.7" xml:space="preserve">
<path id="SvgjsPath1013" fill="#427BE7" d="M17.6,16.6c0.2-0.2,0.2-0.6,0-0.8l-1-1l5.3-5.3h2.5c0.2,0,0.4-0.1,0.5-0.3l2.8-5.5
	c0.1-0.2,0.1-0.5-0.1-0.7l-1.4-1.4c-0.2-0.2-0.4-0.2-0.7-0.1L20,4.3c-0.2,0.1-0.3,0.3-0.3,0.5v2.5l-5.3,5.3l-0.9-0.9
	c-0.2-0.2-0.6-0.2-0.8,0l-7.1,7.1c-0.7,0.7-1,1.5-1,2.5c0,0.9,0.4,1.8,1,2.5c0.6,0.7,1.5,1,2.5,1c0.9,0,1.8-0.4,2.4-1.1L17.6,16.6z
	 M6.4,19.5l6.7-6.7l0.9,0.9c0.2,0.2,0.6,0.2,0.8,0l5.9-5.9c0.1-0.1,0.2-0.3,0.2-0.4V5.1l4.8-2.4l0.8,0.8l-2.4,4.8h-2.4
	c-0.2,0-0.3,0.1-0.4,0.2l-5.9,5.9c-0.1,0.1-0.2,0.2-0.2,0.4c0,0.2,0.1,0.3,0.2,0.4l1,1l-6.7,6.7c-0.4,0.4-1,0.7-1.6,0.7
	c-0.6,0-1.2-0.3-1.7-0.7c-0.4-0.4-0.6-1-0.6-1.6C5.7,20.6,5.9,20,6.4,19.5z M24,23.2c0.5-0.5,0.8-1.2,0.8-2c0-0.8-0.3-1.5-0.8-2
	l-5-5c-0.2-0.2-0.6-0.2-0.8,0c-0.2,0.2-0.2,0.6,0,0.8l5,5c0.3,0.3,0.5,0.7,0.5,1.2c0,0.5-0.2,0.9-0.5,1.2c-0.6,0.7-1.7,0.7-2.3,0
	l-3.7-3.7c-0.2-0.2-0.6-0.2-0.8,0c-0.2,0.2-0.2,0.6,0,0.8l3.7,3.7c0.6,0.5,1.3,0.8,2,0.8C22.7,24,23.5,23.7,24,23.2z M1.2,4.4
	c0.1-0.3,0.3-0.5,0.5-0.5C2,3.8,2.2,3.8,2.4,4l2.1,2.1c0.2,0.2,0.4,0.3,0.7,0.3s0.5-0.1,0.7-0.3l0.9-0.9c0.4-0.4,0.4-1,0-1.4
	L4.7,1.5C4.5,1.3,4.5,1.1,4.5,0.8C4.6,0.6,4.8,0.3,5,0.3c2-0.7,4.3-0.1,5.8,1.4c1.3,1.2,1.8,2.9,1.7,4.7c-0.1,0.8,0.2,1.4,0.7,1.9
	l2,2c0.2,0.2,0.2,0.6,0,0.8c-0.2,0.2-0.6,0.2-0.8,0l-2-2c-0.8-0.8-1.1-1.8-1-2.9C11.5,4.8,11,3.4,10,2.5C9,1.4,7.5,1,6.1,1.2
	l1.6,1.7c0.8,0.8,0.8,2.2,0,3.1L6.8,6.8c-0.4,0.4-1,0.6-1.6,0.7c-0.6,0-1.1-0.2-1.5-0.6L2.2,5.4C2.1,6.7,2.6,8,3.5,9
	c0.9,0.9,2.2,1.4,3.5,1.3c1-0.1,2,0.3,2.7,1l0.7,0.7c0.2,0.2,0.2,0.6,0,0.8c-0.1,0.1-0.3,0.1-0.4,0.1c-0.1,0-0.3-0.1-0.4-0.1
	l-0.7-0.7c-0.5-0.5-1.1-0.7-1.8-0.7C5.4,11.6,3.8,11,2.7,9.8C1.3,8.4,0.7,6.3,1.2,4.4z"/>
</svg>
