<?xml version="1.0" encoding="utf-8"?>
<!-- Generator: Adobe Illustrator 18.0.0, SVG Export Plug-In . SVG Version: 6.00 Build 0)  -->
<!DOCTYPE svg PUBLIC "-//W3C//DTD SVG 1.1//EN" "http://www.w3.org/Graphics/SVG/1.1/DTD/svg11.dtd">
<svg version="1.1" id="SvgjsSvg1000" xmlns:svgjs="http://svgjs.com/svgjs"
	 xmlns="http://www.w3.org/2000/svg" xmlns:xlink="http://www.w3.org/1999/xlink" x="0px" y="0px" viewBox="0 1 17 14"
	 enable-background="new 0 1 17 14" xml:space="preserve">
<path id="SvgjsPath1007" fill="#FFFFFF" d="M17,2.7c-0.1,0.6-1,1.3-1.6,1.8C16,12.6,6.7,17.7,0,13.5c1.9,0,4-0.5,5.1-1.6
	c-1.6-0.3-2.8-1-3.2-2.4c0.5,0,1.2,0.1,1.5-0.1C1.9,8.9,0.7,8,0.6,6c0.5,0.1,0.8,0.4,1.5,0.3C1.1,5.7,0,3.4,1,1.6
	C2.8,3.6,5,5.1,8.4,5.4c-0.8-3.6,3.9-5.8,6.1-3.2c0.8-0.2,1.5-0.5,2.3-0.8c-0.3,0.8-0.9,1.3-1.5,1.9C15.9,3.1,16.6,3,17,2.7z"/>
</svg>
