<?xml version="1.0" encoding="utf-8"?>
<!-- Generator: Adobe Illustrator 19.0.0, SVG Export Plug-In . SVG Version: 6.00 Build 0)  -->
<svg version="1.1" id="SvgjsSvg1008" xmlns:svgjs="http://svgjs.com/svgjs"
	 xmlns="http://www.w3.org/2000/svg" xmlns:xlink="http://www.w3.org/1999/xlink" x="0px" y="0px" viewBox="-297 387 16 19"
	 style="enable-background:new -297 387 16 19;" xml:space="preserve">
<style type="text/css">
	.st0{fill:#427BE7;}
</style>
<path id="SvgjsPath1010" class="st0" d="M-289,398c5.6,0,8,4,8,4v3c0,0.6-0.4,1-1,1h-14c-0.5,0-1-0.4-1-1v-3
	C-297,402-294.6,398-289,398z M-295,404h12c0,0,0-1,0-1.4c-0.3-0.4-0.7-0.7-1.1-1.1c-1.3-1-2.9-1.6-4.9-1.6s-3.6,0.6-4.9,1.6
	c-0.4,0.4-0.8,0.7-1.1,1.1C-295,403-295,404-295,404z M-289,395c-1.7,0-3-1.3-3-3s1.3-3,3-3s3,1.3,3,3S-287.3,395-289,395z
	 M-289,397c2.8,0,5-2.2,5-5s-2.2-5-5-5s-5,2.2-5,5S-291.8,397-289,397z"/>
</svg>
