<?xml version="1.0" encoding="utf-8"?>
<!-- Generator: Adobe Illustrator 18.0.0, SVG Export Plug-In . SVG Version: 6.00 Build 0)  -->
<!DOCTYPE svg PUBLIC "-//W3C//DTD SVG 1.1//EN" "http://www.w3.org/Graphics/SVG/1.1/DTD/svg11.dtd">
<svg version="1.1" id="SvgjsSvg1020" xmlns:svgjs="http://svgjs.com/svgjs"
	 xmlns="http://www.w3.org/2000/svg" xmlns:xlink="http://www.w3.org/1999/xlink" x="0px" y="0px" viewBox="0 1 21.5 13"
	 enable-background="new 0 1 21.5 13" xml:space="preserve">
<path id="SvgjsPath1022" fill="#427BE7" d="M10.5,13.9h1.3c0,0,0.4,0,0.6-0.3c0.2-0.2,0.2-0.6,0.2-0.6s0-1.8,0.8-2.1
	c0.8-0.3,1.8,1.8,2.9,2.5c0.8,0.6,1.4,0.5,1.4,0.5l2.9,0c0,0,1.5-0.1,0.8-1.4c-0.1-0.1-0.4-0.9-2.1-2.6c-1.8-1.8-1.6-1.5,0.6-4.6
	c1.3-1.9,1.8-3,1.7-3.5c-0.2-0.5-1.1-0.3-1.1-0.3l-3.2,0c0,0-0.2,0-0.4,0.1s-0.3,0.4-0.3,0.4s-0.5,1.5-1.2,2.7
	c-1.4,2.6-2,2.7-2.3,2.6c-0.5-0.4-0.4-1.5-0.4-2.3c0-2.5,0.4-3.6-0.7-3.8C11.5,1.1,11.2,1,10.3,1C9.2,1,8.2,1,7.7,1.3
	C7.3,1.5,7,1.9,7.2,1.9c0.2,0,0.7,0.1,0.9,0.5C8.5,2.9,8.5,4,8.5,4s0.2,3-0.4,3.3C7.6,7.6,7,7.1,5.7,4.7C5,3.5,4.5,2.2,4.5,2.2
	S4.4,1.9,4.3,1.8C4.1,1.6,3.8,1.6,3.8,1.6l-3.1,0c0,0-0.5,0-0.6,0.2c-0.1,0.2,0,0.6,0,0.6s2.4,6,5.1,9C7.7,14.1,10.5,13.9,10.5,13.9
	L10.5,13.9L10.5,13.9z"/>
</svg>
