<?xml version="1.0" encoding="utf-8"?>
<!-- Generator: Adobe Illustrator 18.0.0, SVG Export Plug-In . SVG Version: 6.00 Build 0)  -->
<!DOCTYPE svg PUBLIC "-//W3C//DTD SVG 1.1//EN" "http://www.w3.org/Graphics/SVG/1.1/DTD/svg11.dtd">
<svg version="1.1" id="SvgjsSvg1032" xmlns:svgjs="http://svgjs.com/svgjs"
	 xmlns="http://www.w3.org/2000/svg" xmlns:xlink="http://www.w3.org/1999/xlink" x="0px" y="0px" viewBox="0 0 22 15.5"
	 enable-background="new 0 0 22 15.5" xml:space="preserve">
<path id="SvgjsPath1034" fill="#427BE7" d="M8.7,4.4l5.9,3.1l-5.9,3.1V4.4z M20.9,1.2c-0.8-0.9-1.8-0.9-2.2-0.9C15.6,0,11,0,11,0
	S6.4,0,3.3,0.2c-0.4,0-1.4,0.1-2.2,0.9C0.4,1.8,0.2,3.3,0.2,3.3S0,5.1,0,6.9v1.7c0,1.8,0.2,3.6,0.2,3.6s0.2,1.5,0.9,2.2
	c0.8,0.9,1.9,0.9,2.4,0.9c1.8,0.2,7.5,0.2,7.5,0.2s4.6,0,7.7-0.2c0.4,0,1.4,0,2.2-0.9c0.7-0.7,0.9-2.2,0.9-2.2S22,10.3,22,8.6V6.9
	c0-1.8-0.2-3.6-0.2-3.6S21.6,1.8,20.9,1.2z"/>
</svg>
