<?xml version="1.0" encoding="utf-8"?>
<!-- Generator: Adobe Illustrator 18.0.0, SVG Export Plug-In . SVG Version: 6.00 Build 0)  -->
<!DOCTYPE svg PUBLIC "-//W3C//DTD SVG 1.1//EN" "http://www.w3.org/Graphics/SVG/1.1/DTD/svg11.dtd">
<svg version="1.1" id="SvgjsSvg1016" xmlns:svgjs="http://svgjs.com/svgjs"
	 xmlns="http://www.w3.org/2000/svg" xmlns:xlink="http://www.w3.org/1999/xlink" x="0px" y="0px" viewBox="0 0 21.9 20"
	 enable-background="new 0 0 21.9 20" xml:space="preserve">
<g>
	<defs>
		<path id="SVGID_1_" d="M0,11c0,0.6,0.4,1,1,1h3c0.6,0,1-0.4,1-1V3c0-0.6-0.4-1-1-1H1C0.4,2,0,2.4,0,3V11z M6.3,10.6
			c0,0.9,1.1,1.4,1.1,1.4s2.1,0.7,4.6,2.8c2.5,2.1,3.2,3.9,3.9,4.9c0.3,0.7,2.8,0,2.5-3.9c-0.4-1.8-1.4-3.5-1.4-3.5s2.1-0.7,3.2-1.1
			c1.1-0.3,2.5-1.8,1.4-3.9C20.4,5.3,19,2.3,18.2,1c-0.9-1.3-2.6-0.9-3.3-0.9c-2.5,0.3-6,1.4-6.7,1.7C7.1,2.1,6.3,3.1,6.3,3.9
			C6.3,4.7,6.3,9.7,6.3,10.6z"/>
	</defs>
	<clipPath id="SVGID_2_">
		<use xlink:href="#SVGID_1_"  overflow="visible"/>
	</clipPath>
	
		<path id="SvgjsPath1018" clip-path="url(#SVGID_2_)" fill="transparent" fill-opacity="0" stroke="#d9dbe1" stroke-width="3" stroke-linecap="round" stroke-linejoin="round" stroke-miterlimit="50" stroke-dasharray="0" d="
		M0,11c0,0.6,0.4,1,1,1h3c0.6,0,1-0.4,1-1V3c0-0.6-0.4-1-1-1H1C0.4,2,0,2.4,0,3V11z M6.3,10.6c0,0.9,1.1,1.4,1.1,1.4
		s2.1,0.7,4.6,2.8c2.5,2.1,3.2,3.9,3.9,4.9c0.3,0.7,2.8,0,2.5-3.9c-0.4-1.8-1.4-3.5-1.4-3.5s2.1-0.7,3.2-1.1
		c1.1-0.3,2.5-1.8,1.4-3.9C20.4,5.3,19,2.3,18.2,1c-0.9-1.3-2.6-0.9-3.3-0.9c-2.5,0.3-6,1.4-6.7,1.7C7.1,2.1,6.3,3.1,6.3,3.9
		C6.3,4.7,6.3,9.7,6.3,10.6z"/>
</g>
</svg>
