<?xml version="1.0" encoding="utf-8"?>
<!-- Generator: Adobe Illustrator 18.0.0, SVG Export Plug-In . SVG Version: 6.00 Build 0)  -->
<!DOCTYPE svg PUBLIC "-//W3C//DTD SVG 1.1//EN" "http://www.w3.org/Graphics/SVG/1.1/DTD/svg11.dtd">
<svg version="1.1" id="SvgjsSvg1021" xmlns:svgjs="http://svgjs.com/svgjs"
	 xmlns="http://www.w3.org/2000/svg" xmlns:xlink="http://www.w3.org/1999/xlink" x="0px" y="0px" viewBox="3.9 1.5 21.9 22"
	 enable-background="new 3.9 1.5 21.9 22" xml:space="preserve">
<path id="SvgjsPath1023" fill="#417BE7" fill-opacity="0.3" d="M3.9,14.5c0,0.6,0.4,1,1,1h3c0.6,0,1-0.4,1-1v-8c0-0.6-0.4-1-1-1h-3
	c-0.6,0-1,0.4-1,1V14.5z M10.3,14.1c0,0.9,1.1,1.4,1.1,1.4s2.1,0.7,4.6,2.8c2.5,2.1,3.2,3.9,3.9,4.9c0.3,0.7,2.8,0,2.5-3.9
	c-0.4-1.8-1.4-3.5-1.4-3.5s2.1-0.7,3.2-1.1c1.1-0.4,2.5-1.8,1.4-3.9c-1.1-2.1-2.5-5.2-3.3-6.5c-0.9-1.3-2.6-0.9-3.3-0.9
	c-2.5,0.3-6,1.4-6.7,1.7c-1.1,0.4-1.8,1.3-1.8,2.1C10.3,8.2,10.3,13.2,10.3,14.1z"/>
<path id="SvgjsPath1026" fill="#427BE7" d="M3.9,12.5c0,0.6,0.4,1,1,1h3c0.6,0,1-0.4,1-1v-8c0-0.6-0.4-1-1-1h-3c-0.6,0-1,0.4-1,1
	V12.5z M10.3,12.1c0,0.9,1.1,1.4,1.1,1.4s2.1,0.7,4.6,2.8c2.5,2.1,3.2,3.9,3.9,4.9c0.3,0.7,2.8,0,2.5-3.9c-0.4-1.8-1.4-3.5-1.4-3.5
	s2.1-0.7,3.2-1.1c1.1-0.4,2.5-1.8,1.4-3.9c-1.1-2.1-2.5-5.2-3.3-6.5c-0.9-1.3-2.6-0.9-3.3-0.9c-2.5,0.3-6,1.4-6.7,1.7
	c-1.1,0.4-1.8,1.3-1.8,2.1C10.3,6.2,10.3,11.2,10.3,12.1z"/>
</svg>
