<?xml version="1.0" encoding="utf-8"?>
<!-- Generator: Adobe Illustrator 18.0.0, SVG Export Plug-In . SVG Version: 6.00 Build 0)  -->
<!DOCTYPE svg PUBLIC "-//W3C//DTD SVG 1.1//EN" "http://www.w3.org/Graphics/SVG/1.1/DTD/svg11.dtd">
<svg version="1.1" id="SvgjsSvg1000" xmlns:svgjs="http://svgjs.com/svgjs"
	 xmlns="http://www.w3.org/2000/svg" xmlns:xlink="http://www.w3.org/1999/xlink" x="0px" y="0px" viewBox="0 0 21.9 20"
	 enable-background="new 0 0 21.9 20" xml:space="preserve">
<g>
	<defs>
		<path id="SVGID_1_" d="M0,9c0-0.6,0.4-1,1-1h3c0.6,0,1,0.4,1,1v8c0,0.6-0.4,1-1,1H1c-0.6,0-1-0.4-1-1V9z M6.3,9.4
			C6.3,8.5,7.4,8,7.4,8S9.5,7.3,12,5.2c2.5-2.1,3.2-3.9,3.9-4.9c0.3-0.7,2.8,0,2.5,3.9c-0.4,1.8-1.4,3.5-1.4,3.5s2.1,0.7,3.2,1.1
			c1.1,0.3,2.5,1.8,1.4,3.9c-1.1,2.1-2.5,5.2-3.3,6.5c-0.9,1.3-2.6,0.9-3.3,0.9c-2.5-0.3-6-1.4-6.7-1.7c-1.1-0.3-1.8-1.3-1.8-2.1
			C6.3,15.3,6.3,10.3,6.3,9.4z"/>
	</defs>
	<clipPath id="SVGID_2_">
		<use xlink:href="#SVGID_1_"  overflow="visible"/>
	</clipPath>
	
		<path id="SvgjsPath1007" clip-path="url(#SVGID_2_)" fill="transparent" fill-opacity="0" stroke="#d9dbe1" stroke-width="3" stroke-linecap="round" stroke-linejoin="round" stroke-miterlimit="50" stroke-dasharray="0" d="
		M0,9c0-0.6,0.4-1,1-1h3c0.6,0,1,0.4,1,1v8c0,0.6-0.4,1-1,1H1c-0.6,0-1-0.4-1-1V9z M6.3,9.4C6.3,8.5,7.4,8,7.4,8S9.5,7.3,12,5.2
		c2.5-2.1,3.2-3.9,3.9-4.9c0.3-0.7,2.8,0,2.5,3.9c-0.4,1.8-1.4,3.5-1.4,3.5s2.1,0.7,3.2,1.1c1.1,0.3,2.5,1.8,1.4,3.9
		c-1.1,2.1-2.5,5.2-3.3,6.5c-0.9,1.3-2.6,0.9-3.3,0.9c-2.5-0.3-6-1.4-6.7-1.7c-1.1-0.3-1.8-1.3-1.8-2.1C6.3,15.3,6.3,10.3,6.3,9.4z"
		/>
</g>
</svg>
