<?xml version="1.0" encoding="utf-8"?>
<!-- Generator: Adobe Illustrator 18.0.0, SVG Export Plug-In . SVG Version: 6.00 Build 0)  -->
<!DOCTYPE svg PUBLIC "-//W3C//DTD SVG 1.1//EN" "http://www.w3.org/Graphics/SVG/1.1/DTD/svg11.dtd">
<svg version="1.1" id="SvgjsSvg1000" xmlns:svgjs="http://svgjs.com/svgjs"
	 xmlns="http://www.w3.org/2000/svg" xmlns:xlink="http://www.w3.org/1999/xlink" x="0px" y="0px" viewBox="0 1 95.9 15.1"
	 enable-background="new 0 1 95.9 15.1" xml:space="preserve">
<g>
	<defs>
		<path id="SVGID_1_" d="M3,15.9l0.9-5.2L0,7C0,6.9,0,6.6,0.2,6.6l5.3-0.8l2.4-4.7C7.9,1,8.1,1,8.2,1.1l2.4,4.7l5.3,0.8
			C16,6.6,16,6.9,16,7l-3.8,3.7l0.8,5.2c0,0.1-0.2,0.3-0.3,0.2L8,13.7l-4.7,2.4c0,0-0.1,0-0.1,0C3,16.1,3,16,3,15.9z M43,15.8
			l0.8-5.2L40,6.9c-0.1-0.1,0-0.3,0.1-0.3l5.2-0.8l2.4-4.7C47.8,1,48,1,48.1,1.1l2.4,4.7l5.2,0.8c0.1,0,0.2,0.2,0.1,0.3l-3.7,3.7
			l0.8,5.2c0,0.2-0.2,0.3-0.3,0.2l-4.7-2.4L43.2,16c0,0-0.1,0-0.1,0C43,16,42.9,15.9,43,15.8z M23,15.8l0.8-5.2L20,6.9
			c-0.1-0.1,0-0.3,0.1-0.3l5.2-0.8l2.4-4.7C27.8,1,28,1,28.1,1.1l2.4,4.7l5.2,0.8c0.1,0,0.2,0.2,0.1,0.3l-3.7,3.7l0.8,5.2
			c0,0.2-0.2,0.3-0.3,0.2l-4.7-2.4L23.2,16c0,0-0.1,0-0.1,0C23,16,22.9,15.9,23,15.8z M63,15.8l0.8-5.2L60,6.9
			c-0.1-0.1,0-0.3,0.1-0.3l5.2-0.8l2.4-4.7C67.8,1,68,1,68.1,1.1l2.4,4.7l5.2,0.8c0.1,0,0.2,0.2,0.1,0.3l-3.7,3.7l0.8,5.2
			c0,0.2-0.2,0.3-0.3,0.2l-4.7-2.4L63.2,16c0,0-0.1,0-0.1,0C63,16,62.9,15.9,63,15.8z M83,15.8l0.8-5.2L80,6.9
			c-0.1-0.1,0-0.3,0.1-0.3l5.2-0.8l2.4-4.7C87.8,1,88,1,88.1,1.1l2.4,4.7l5.2,0.8c0.1,0,0.2,0.2,0.1,0.3l-3.7,3.7l0.8,5.2
			c0,0.2-0.2,0.3-0.3,0.2l-4.7-2.4L83.2,16c0,0-0.1,0-0.1,0C83,16,82.9,15.9,83,15.8z"/>
	</defs>
	<clipPath id="SVGID_2_">
		<use xlink:href="#SVGID_1_"  overflow="visible"/>
	</clipPath>
	
		<path id="SvgjsPath1007" clip-path="url(#SVGID_2_)" fill="#FFFFFF" fill-opacity="0" stroke="#D9DBE1" stroke-width="3" stroke-linecap="round" stroke-linejoin="round" stroke-miterlimit="50" stroke-dasharray="0" d="
		M3,15.9l0.9-5.2L0,7C0,6.9,0,6.6,0.2,6.6l5.3-0.8l2.4-4.7C7.9,1,8.1,1,8.2,1.1l2.4,4.7l5.3,0.8C16,6.6,16,6.9,16,7l-3.8,3.7
		l0.8,5.2c0,0.1-0.2,0.3-0.3,0.2L8,13.7l-4.7,2.4c0,0-0.1,0-0.1,0C3,16.1,3,16,3,15.9z M43,15.8l0.8-5.2L40,6.9
		c-0.1-0.1,0-0.3,0.1-0.3l5.2-0.8l2.4-4.7C47.8,1,48,1,48.1,1.1l2.4,4.7l5.2,0.8c0.1,0,0.2,0.2,0.1,0.3l-3.7,3.7l0.8,5.2
		c0,0.2-0.2,0.3-0.3,0.2l-4.7-2.4L43.2,16c0,0-0.1,0-0.1,0C43,16,42.9,15.9,43,15.8z M23,15.8l0.8-5.2L20,6.9
		c-0.1-0.1,0-0.3,0.1-0.3l5.2-0.8l2.4-4.7C27.8,1,28,1,28.1,1.1l2.4,4.7l5.2,0.8c0.1,0,0.2,0.2,0.1,0.3l-3.7,3.7l0.8,5.2
		c0,0.2-0.2,0.3-0.3,0.2l-4.7-2.4L23.2,16c0,0-0.1,0-0.1,0C23,16,22.9,15.9,23,15.8z M63,15.8l0.8-5.2L60,6.9
		c-0.1-0.1,0-0.3,0.1-0.3l5.2-0.8l2.4-4.7C67.8,1,68,1,68.1,1.1l2.4,4.7l5.2,0.8c0.1,0,0.2,0.2,0.1,0.3l-3.7,3.7l0.8,5.2
		c0,0.2-0.2,0.3-0.3,0.2l-4.7-2.4L63.2,16c0,0-0.1,0-0.1,0C63,16,62.9,15.9,63,15.8z M83,15.8l0.8-5.2L80,6.9
		c-0.1-0.1,0-0.3,0.1-0.3l5.2-0.8l2.4-4.7C87.8,1,88,1,88.1,1.1l2.4,4.7l5.2,0.8c0.1,0,0.2,0.2,0.1,0.3l-3.7,3.7l0.8,5.2
		c0,0.2-0.2,0.3-0.3,0.2l-4.7-2.4L83.2,16c0,0-0.1,0-0.1,0C83,16,82.9,15.9,83,15.8z"/>
</g>
</svg>
