<?xml version="1.0" encoding="utf-8"?>
<!-- Generator: Adobe Illustrator 18.0.0, SVG Export Plug-In . SVG Version: 6.00 Build 0)  -->
<!DOCTYPE svg PUBLIC "-//W3C//DTD SVG 1.1//EN" "http://www.w3.org/Graphics/SVG/1.1/DTD/svg11.dtd">
<svg version="1.1" id="SvgjsSvg1016" xmlns:svgjs="http://svgjs.com/svgjs"
	 xmlns="http://www.w3.org/2000/svg" xmlns:xlink="http://www.w3.org/1999/xlink" x="0px" y="0px" viewBox="0.2 0.2 7.7 7.7"
	 enable-background="new 0.2 0.2 7.7 7.7" xml:space="preserve">
<path id="SvgjsPath1018" fill="#969da9" d="M6.1,0.5c0.4-0.4,1-0.4,1.4,0c0.4,0.4,0.4,1,0,1.4L5.4,4l2.1,2.1c0.4,0.4,0.4,1,0,1.4
	c-0.4,0.4-1,0.4-1.4,0L4,5.4L1.9,7.5c-0.4,0.4-1,0.4-1.4,0c-0.4-0.4-0.4-1,0-1.4L2.6,4L0.5,1.9c-0.4-0.4-0.4-1,0-1.4
	c0.4-0.4,1-0.4,1.4,0L4,2.6L6.1,0.5z"/>
</svg>
