<svg xmlns="http://www.w3.org/2000/svg" xmlns:xlink="http://www.w3.org/1999/xlink" viewBox="0 0 21.9 20">
    <defs>
        <path id="a" d="M0 11c0 .6.4 1 1 1h3c.6 0 1-.4 1-1V3c0-.6-.4-1-1-1H1c-.6 0-1 .4-1 1v8zm6.3-.4c0 .9 1.1 1.4 1.1 1.4s2.1.7 4.6 2.8c2.5 2.1 3.2 3.9 3.9 4.9.3.7 2.8 0 2.5-3.9C18 14 17 12.3 17 12.3s2.1-.7 3.2-1.1c1.1-.3 2.5-1.8 1.4-3.9-1.2-2-2.6-5-3.4-6.3-.9-1.3-2.6-.9-3.3-.9-2.5.3-6 1.4-6.7 1.7-1.1.3-1.9 1.3-1.9 2.1v6.7z"/>
    </defs>
    <clipPath id="b">
        <use xlink:href="#a" overflow="visible"/>
    </clipPath>
    <path clip-path="url(#b)" fill="transparent" fill-opacity="0" stroke="#d9dbe1" stroke-width="3" stroke-linecap="round" stroke-linejoin="round" stroke-miterlimit="50" stroke-dasharray="0" d="M0 11c0 .6.4 1 1 1h3c.6 0 1-.4 1-1V3c0-.6-.4-1-1-1H1c-.6 0-1 .4-1 1v8zm6.3-.4c0 .9 1.1 1.4 1.1 1.4s2.1.7 4.6 2.8c2.5 2.1 3.2 3.9 3.9 4.9.3.7 2.8 0 2.5-3.9C18 14 17 12.3 17 12.3s2.1-.7 3.2-1.1c1.1-.3 2.5-1.8 1.4-3.9-1.2-2-2.6-5-3.4-6.3-.9-1.3-2.6-.9-3.3-.9-2.5.3-6 1.4-6.7 1.7-1.1.3-1.9 1.3-1.9 2.1v6.7z"/>
</svg>
