<svg xmlns="http://www.w3.org/2000/svg" viewBox="3.9 1.5 21.9 22">
    <path fill="#417BE7" fill-opacity=".3" d="M3.9 12.5c0-.6.4-1 1-1h3c.6 0 1 .4 1 1v8c0 .6-.4 1-1 1h-3c-.6 0-1-.4-1-1v-8zm6.4.4c0-.9 1.1-1.4 1.1-1.4s2.1-.7 4.6-2.8c2.5-2.1 3.2-3.9 3.9-4.9.3-.7 2.8 0 2.5 3.9-.4 1.8-1.4 3.5-1.4 3.5s2.1.7 3.2 1.1c1.1.3 2.5 1.8 1.4 3.9-1.1 2.1-2.5 5.2-3.3 6.5-.9 1.3-2.6.9-3.3.9-2.5-.3-6-1.4-6.7-1.7-1.1-.4-1.8-1.3-1.8-2.1-.2-1-.2-6-.2-6.9z"/>
    <path fill="#427BE7" d="M3.9 10.5c0-.6.4-1 1-1h3c.6 0 1 .4 1 1v8c0 .6-.4 1-1 1h-3c-.6 0-1-.4-1-1v-8zm6.4.4c0-.9 1.1-1.4 1.1-1.4s2.1-.7 4.6-2.8c2.5-2.1 3.2-3.9 3.9-4.9.3-.7 2.8 0 2.5 3.9C22 7.5 21 9.2 21 9.2s2 .7 3 1c1.1.3 2.5 1.8 1.4 3.9-1.1 2.1-2.5 5.2-3.3 6.5-.9 1.3-2.6.9-3.3.9-2.5-.3-6-1.4-6.7-1.7-1.1-.4-1.8-1.3-1.8-2.1v-6.8z"/>
</svg>
