<?xml version="1.0" encoding="UTF-8"?><!DOCTYPE svg PUBLIC "-//W3C//DTD SVG 1.1//EN" "http://www.w3.org/Graphics/SVG/1.1/DTD/svg11.dtd"><svg xmlns="http://www.w3.org/2000/svg" xmlns:xlink="http://www.w3.org/1999/xlink"><defs>
        <path id="a" d="M-294 395c0-.6.4-1 1-1h3c.6 0 1 .4 1 1v8c0 .6-.4 1-1 1h-3c-.6 0-1-.4-1-1v-8zm6.3.4c0-.9 1.1-1.4 1.1-1.4s2.1-.7 4.6-2.8c2.5-2.1 3.2-3.9 3.9-4.9.4-.7 2.8 0 2.5 3.9-.4 1.8-1.4 3.5-1.4 3.5s2.1.7 3.2 1.1c1 .4 2.5 1.8 1.4 3.9-1.1 2.1-2.5 5.2-3.3 6.4-.9 1.3-2.6.9-3.3.9-2.5-.3-6-1.4-6.7-1.7-1.1-.4-1.8-1.3-1.8-2.1-.2-.9-.2-5.9-.2-6.8z"/>
    </defs><symbol id="icon-arr-back" viewBox="0 0 15 13">
    <path d="M14.8 9.7l-3.3 3.1c-.3.2-.5.2-.7.2-.4 0-.5-.2-.6-.3-.3-.3-.2-.7.1-1l1.9-1.8H3C1.3 9.9 0 8.6 0 7V.8C0 .3.3 0 .8 0s.8.3.8.8V7c0 .7.7 1.4 1.4 1.4h9.2l-1.9-1.8c-.3-.3-.3-.8 0-1.1.2-.1.3-.2.6-.2.2 0 .4.1.5.2l3.3 3.1c.4.3.4.8.1 1.1z"/>
</symbol><symbol id="icon-bank" viewBox="0 0 29 25.6">
    <path d="M14.5 0l13.2 7.3v1.3H1.3V7.3L14.5 0zm-4.4 19.9c0 .3-.3.6-.6.6h-5c-.4 0-.6-.3-.6-.6 0-.4.3-.6.6-.6H5v-8.2h-.6c-.4 0-.6-.3-.6-.6s.3-.6.6-.6h5c.4 0 .6.3.6.6s-.3.6-.6.6h-.6v8.2h.6c.4 0 .7.3.7.6zm15.1 0c0 .3-.3.6-.6.6h-5c-.4 0-.6-.3-.6-.6 0-.4.3-.6.6-.6h.6v-8.2h-.6c-.4 0-.6-.3-.6-.6s.3-.6.6-.6h5c.4 0 .6.3.6.6s-.3.6-.6.6H24v8.2h.6c.3 0 .6.3.6.6zm-7.6 0c0 .3-.3.6-.6.6h-5c-.4 0-.6-.3-.6-.6 0-.4.3-.6.6-.6h.6v-8.2H12c-.4 0-.6-.3-.6-.6s.3-.6.6-.6h5c.4 0 .6.3.6.6s-.3.6-.6.6h-.6v8.2h.6c.4 0 .6.3.6.6zm-17 5.7c-.3 0-.6-.2-.6-.6s.3-.6.6-.6h27.7c.4 0 .6.3.6.6s-.3.6-.6.6H.6zm25.9-2.5h-24c-.3 0-.6-.3-.6-.6s.3-.6.6-.6h24c.3 0 .6.3.6.6s-.3.6-.6.6zm-20.2-12v8.2h1.3v-8.2H6.3zm15.1 0v8.2h1.3v-8.2h-1.3zm-7.5 0v8.2h1.3v-8.2h-1.3zm.6-9.3L4 7.3h20.9L14.5 1.8z"/>
</symbol><symbol id="icon-basket" viewBox="-297 386 16 21">
    <style>
        .st0{fill:#427be7}
    </style>
    <path id="SvgjsPath1019" class="st0" d="M-284 392v-1.5c0-2.8-2-4.5-5-4.5s-5 1.7-5 4.5v1.5h-1.4c-.9 0-1.6.7-1.6 1.6v11.7c0 .9.7 1.6 1.6 1.6h12.7c.9 0 1.6-.7 1.6-1.6v-11.7c0-.9-.7-1.6-1.6-1.6h-1.3zm-11 13v-11h12v11h-12zm3-14.5c0-1.6 1-2.5 3-2.5s3 .9 3 2.5v1.5h-6v-1.5z"/>
</symbol><symbol id="icon-check" viewBox="0 1 17 12">
    <path d="M.3 8.2l5 4.5c.4.4 1 .3 1.4 0l10-10c.4-.4.4-1 0-1.4s-1-.4-1.4 0l-10 10h1.4l-5-4.5c-.4-.4-1-.3-1.4.1-.4.3-.4 1 0 1.3z"/>
</symbol><symbol id="icon-click" viewBox="0 0 19 25.7">
    <path d="M6.1 17V6.6s.1-2.1 2.1-2.1 2.1 2 2.1 2l.6 5.3s1.8.5 4.3 1.4c2.4.9 3.2 1.5 3.2 1.5s.3 0 .5.8.3 2.5 0 4.4c-.5 2.7-.9 3.9-3.3 5.2-2.4 1.2-6.2.8-9.6-1.7C2.7 21 .5 18.1.2 17.6c-.3-.5 0-.9.1-1.1.1-.1.9-.9 2.4-.9.4 0 .9.2 1.4.4l2 1zm10.8-.9c-.1 0-.1-.1-.2-.1-.5-.3-1.3-.6-2.3-1-1-.4-2-.7-2.9-1-.5-.2-.9-.3-1.1-.3-.8-.2-1.4-.8-1.5-1.7l-.6-5.4s0-.1-.1-.1h-.1c0 .1-.1.2-.1.2v10.5c0 1.7-1.9 2.6-3.2 1.6 0 0-.1-.1-.3-.2-.2-.2-.5-.3-.7-.5-.3-.1-.5-.3-.7-.4-.3-.1-.4-.2-.4-.2.2.2.4.5.7.8 1.1 1.2 2.4 2.4 3.7 3.4 2.7 1.9 5.7 2.4 7.5 1.5 1.6-.8 1.9-1.2 2.3-3.7.1-1.2.1-2.5 0-3.4zm-15.1.4c.4.5.2 1.1-.1 1.4 0 0 .1-.1.2-.1.2-.1.5-.2.8-.2-.4-.5-.8-.9-.9-1.1zm15.1-.7v.3c.1.1.2.1.2.1.4.3.8.4 1.3.4-.6 0-1.2-.3-1.4-.7-.1 0-.1-.1-.1-.1zM8.1 6.6v0zm0-.1c.1 0 0 0 0 0zm.2 0zm-.2.3s-.1 0 0 0zm-3.2.3c.3.5 0 1.1-.4 1.3-.5.2-1.1 0-1.4-.5-.1-.1-.2-.4-.3-.7-.2-.6-.3-1.1-.3-1.7C2.5 2.4 5 0 8 0s5.5 2.4 5.5 5.5c0 .6-.1 1.1-.3 1.7-.1.3-.2.6-.3.8-.2.5-.8.7-1.3.4-.5-.2-.7-.8-.4-1.3 0-.1.1-.3.2-.5.1-.4.2-.7.2-1.1C11.5 3.6 10 2 8 2S4.5 3.6 4.5 5.5c0 .3.1.7.2 1.1.1.2.2.4.2.5z"/>
</symbol><symbol id="icon-close" viewBox="0.2 0.2 7.7 7.7">
    <path d="M6.1.5c.4-.4 1-.4 1.4 0 .4.4.4 1 0 1.4L5.4 4l2.1 2.1c.4.4.4 1 0 1.4-.4.4-1 .4-1.4 0L4 5.4 1.9 7.5c-.4.4-1 .4-1.4 0-.4-.4-.4-1 0-1.4L2.6 4 .5 1.9C.1 1.5.1.9.5.5c.4-.4 1-.4 1.4 0L4 2.6 6.1.5z"/>
</symbol><symbol id="icon-comment-full" viewBox="0 0 15.3 14">
    <path d="M1.4 0C1 0 .6.1.4.4.1.7 0 1 0 1.4v8.9c0 .4.1.7.4 1 .3.3.6.4 1 .4H7l4.2 2.4v-2.4H14c.4 0 .7-.1 1-.4.3-.3.4-.6.4-1V1.4c0-.4-.1-.7-.4-1-.3-.3-.6-.4-1-.4H1.4z"/>
    <path d="M4 3c-.5 0-1 .5-1 1s.5 1 1 1h8c.5 0 1-.5 1-1s-.5-1-1-1H4zm3 3c-.5 0-1 .5-1 1s.5 1 1 1h5c.5 0 1-.5 1-1s-.5-1-1-1H7z"/>
    <path d="M1.4 0C1 0 .6.1.4.4.1.7 0 1 0 1.4v8.9c0 .4.1.7.4 1 .3.3.6.4 1 .4H7l4.2 2.4v-2.4H14c.4 0 .7-.1 1-.4.3-.3.4-.6.4-1V1.4c0-.4-.1-.7-.4-1-.3-.3-.6-.4-1-.4H1.4z"/>
    <path d="M4 3c-.5 0-1 .5-1 1s.5 1 1 1h8c.5 0 1-.5 1-1s-.5-1-1-1H4zm3 3c-.5 0-1 .5-1 1s.5 1 1 1h5c.5 0 1-.5 1-1s-.5-1-1-1H7z"/>
</symbol><symbol id="icon-comment" viewBox="0 0 15.3 14">
    <path d="M13.9 0c.4 0 .7.1 1 .4.3.3.4.6.4 1v8.9c0 .4-.1.7-.4 1-.3.3-.6.4-1 .4h-2.8v.1l-2-1.1V13l1 .5 1-.6V14L7 11.6H1.4c-.4 0-.7-.1-1-.4-.3-.2-.4-.6-.4-.9V1.4C0 1 .1.7.4.4.6.1 1 0 1.4 0h12.5zM9.1 9.6h4.1V2H2v7.6h5.5l.4.3 1.2.7v-1zM11.5 6c.6 0 1 .5 1 1 0 .6-.4 1-1 1h-5c-.5 0-1-.4-1-1 0-.5.5-1 1-1h5zm1.8 4.3c0-.1.1-.3.2-.4.1-.1.3-.2.5-.2h-.7v.6zM1.4 9.6c.1 0 .3.1.5.2 0 .1.1.3.1.5v-.7h-.6zM13.9 2c-.2 0-.4-.1-.5-.2-.1-.1-.2-.3-.2-.4V2h.7zM2 1.4c0 .1-.1.3-.2.4-.1.1-.3.2-.4.2H2v-.6zM11.5 3c.6 0 1 .5 1 1 0 .6-.4 1-1 1h-8c-.6 0-1-.4-1-1 0-.5.4-1 1-1h8z"/>
</symbol><symbol id="icon-datepicker" viewBox="0 0 16 16.3">
    <path d="M2 2.3h1.3V.8c0-.5.3-.8.7-.8s.8.3.8.8v1.5h6.5V.8c0-.5.3-.8.7-.8s.8.3.8.8v1.5H14c1.1 0 2 .9 2 2v10c0 1.1-.9 2-2 2H2c-1.1 0-2-.9-2-2v-10c0-1.2.9-2 2-2zm-.5 11.9c0 .3.2.5.5.5h12c.3 0 .5-.2.5-.5v-10c0-.3-.2-.5-.5-.5h-1.3v.5c.1.5-.3.8-.7.8s-.8-.3-.8-.8v-.4H4.8v.5c0 .4-.4.7-.8.7s-.7-.3-.7-.7v-.5H2c-.3 0-.5.2-.5.5v9.9zM3 9c0-.6.4-1 1-1s1 .4 1 1-.4 1-1 1-1-.4-1-1zm0 3c0-.6.4-1 1-1s1 .4 1 1-.4 1-1 1-1-.4-1-1zm4 0c0-.6.4-1 1-1s1 .4 1 1-.4 1-1 1-1-.4-1-1zm0-3c0-.6.4-1 1-1s1 .4 1 1-.4 1-1 1-1-.4-1-1zm4 0c0-.6.4-1 1-1s1 .4 1 1-.4 1-1 1-1-.4-1-1zm0 3c0-.6.4-1 1-1s1 .4 1 1-.4 1-1 1-1-.4-1-1zm3.5-6h-13v1.5h13V6z"/>
</symbol><symbol id="icon-delete" viewBox="-296 387 18 19">
    <title>
        Combined Shape
    </title>
    <path d="M-280 404c0 1.1-.9 2-2 2h-10c-1.1 0-2-.9-2-2v-12h-1c-.6 0-1-.4-1-1s.4-1 1-1h16c.6 0 1 .4 1 1s-.4 1-1 1h-1v12zm-12-2c0 1.1.9 2 2 2h6c1.1 0 2-.9 2-2v-8c0-1.1-.9-2-2-2h-6c-1.1 0-2 .9-2 2v8zm3-15h4c.6 0 1 .4 1 1s-.4 1-1 1h-4c-.6 0-1-.4-1-1s.4-1 1-1zm-1 8c0-.6.4-1 1-1s1 .4 1 1v6c0 .6-.4 1-1 1s-1-.4-1-1v-6zm4 0c0-.6.4-1 1-1s1 .4 1 1v6c0 .6-.4 1-1 1s-1-.4-1-1v-6z"/>
</symbol><symbol id="icon-delivery-empty" viewBox="0 0 32.2 23">
    <path d="M31.8 14.8l.2.2c.2.2.2.4.2.6v1.6c0 1-1 2-2 2h-2.3c-.1 0-.2-.1-.2-.1-.1 0-.1-.1-.2-.2-.1 0-.1-.1-.1-.2-.4-1.3-1.6-2.2-3.2-2.2-1.5 0-2.8.9-3.3 2.3-.1.4-.4.5-.9.5h-7.3c-.4 0-.7-.2-.8-.6-.4-1.3-1.7-2.2-3.2-2.2-1 0-1.9.4-2.6 1-.6.6-1 1.5-1 2.5 0 .2 0 .3.1.6.1.4-.2.9-.6 1h-.2c-.4 0-.7-.3-.8-.6-.1-.3-.1-.6-.1-1v-.8H2c-1 0-2-.9-2-2v-2.4c0-.2.1-.4.2-.5l.2-.3V2c0-1 1-2 2-2h14.3c1 0 2 .9 2 2v1.6h6.8c.9 0 2 .6 2.4 1.7L29.1 9l2.3 1c.3.1.5.4.5.7v4.1zm-1.2 2.3v-1.2h-1.2c-.4 0-.8-.3-.8-.8s.4-.8.8-.8h.8v-3.1l-1.4-.6-.3.8c-.1.3-.4.5-.8.5h-3.4c-.2 0-.4-.1-.5-.2L22 10.1c-.2-.2-.3-.3-.3-.6V5.2h-3.2v10.7c0 .4-.4.8-.8.8s-.8-.4-.8-.8v-1.2h-4c-.4 0-.8-.3-.8-.8 0-.4.4-.8.8-.8h4V2c0-.2-.2-.4-.4-.4H2.4c-.2 0-.4.2-.4.4v11.1h2.4c.4 0 .8.4.8.8s-.4.8-.8.8H1.9s-.1.1-.1.2l-.2.1v2.1c0 .2.2.4.4.4h2.1c.3-.5.6-1 .9-1.3 1-.9 2.3-1.5 3.7-1.5 2.1 0 3.8 1.1 4.5 2.8h6.4c.9-1.7 2.6-2.8 4.6-2.8 2.1 0 3.8 1.1 4.5 2.8h1.4c.3-.1.5-.3.5-.4zm-21.8-.4c1.7 0 3.2 1.4 3.2 3.2 0 1.7-1.4 3.2-3.2 3.2-1.8 0-3.2-1.4-3.2-3.2 0-1.8 1.4-3.2 3.2-3.2zm15.5 0c1.8 0 3.2 1.4 3.2 3.2 0 1.7-1.4 3.2-3.2 3.2s-3.2-1.4-3.2-3.2c0-1.8 1.4-3.2 3.2-3.2zm1.9-11c-.1-.4-.5-.5-.8-.5h-2v4l1.3 1.1h2.5l.3-.7-1.3-3.9zM8.8 21.4c.9 0 1.6-.7 1.6-1.6 0-.9-.7-1.6-1.6-1.6-.9 0-1.6.7-1.6 1.6 0 .9.7 1.6 1.6 1.6zm15.5 0c.9 0 1.6-.7 1.6-1.6 0-.9-.7-1.6-1.6-1.6-.9 0-1.6.7-1.6 1.6 0 .9.7 1.6 1.6 1.6z"/>
</symbol><symbol id="icon-delivery" viewBox="0 0 16.6 10">
    <path d="M0 .8C0 .3.3 0 .8 0h6.5c.4 0 .7.3.7.8V8h1.8V1.5h3.8l3 3.8v3.8H16C15.8 8 14.8 7 13.5 7 12.1 7 11 8.1 11 9.5v.5H7.8c-.5 0-.8-.3-.8-.7V9c-.3-1.1-1.3-2-2.5-2S2.3 7.9 2 9H.8C.3 9 0 8.7 0 8.3V.8zM12 9c0-.6.4-1 1-1s1 .4 1 1-.4 1-1 1-1-.4-1-1zM3 9c0-.6.4-1 1-1s1 .4 1 1-.4 1-1 1-1-.4-1-1zm11.3-3.6c.4 0 .6-.3.3-.6l-1.4-1.9c-.2-.3-.8-.6-1.2-.6-.4 0-.8.3-.8.8v1.6c0 .4.3.8.8.8h2.3z"/>
</symbol><symbol id="icon-design" viewBox="0 0 30.7 30.8">
    <path d="M21.9 29.3L5 12.6c-.2-.2-.2-.6 0-.8.2-.2.6-.2.8 0l16.7 16.5 2.1.7-.7-2.1L7.4 10.5c-.2-.2-.2-.6 0-.8.2-.2.6-.2.8 0L25 26.2l1.6 4.6-4.7-1.5zM16.4 17c-.2-.2-.2-.6 0-.9l7-6.9-2-2-6.9 6.8c-.3.2-.6.2-.9 0-.3-.2-.3-.6 0-.9l7.7-7.6 3.8 3.7-7.8 7.8c-.1.1-.3.2-.4.2-.2 0-.4-.1-.5-.2zM4.9 29.3l-3.8-3.7 7.8-7.7c.3-.2.6-.2.9 0 .3.2.3.6 0 .9l-1 1 .6.6c.2.2.2.6 0 .9-.1.1-.3.2-.4.2s-.3-.1-.4-.2l-.6-.6-1 1 .6.6c.2.2.2.6 0 .9-.1.1-.3.2-.4.2s-.5-.3-.6-.4l-.6-.6-1.2 1.1.6.6c.2.2.2.6 0 .9-.1.1-.3.2-.4.2s-.3-.1-.5-.2l-.5-.6-1.1 1.1 2 2 6.9-6.8c.3-.2.6-.2.9 0 .2.2.2.6 0 .9l-7.8 7.7zm16.3-15.4l4.5-4.4.3 1c.2.5.2 1.1 0 1.7 0 .5 0 1.3.2 1.5l3.6 3.6c1.2 1.2 1.2 3.1 0 4.3l-.4.4-8.2-8.1zm8.1 6.3c.3-.7.2-1.5-.4-2.1l-3.6-3.6c-.5-.5-.5-1.4-.6-2.3v-.1L23 13.9l6.3 6.3zm-19-18.8c.2-.1.5-.2.8-.2.5 0 1 .2 1.3.5L16 5.4c.5.5 1.4.5 2.3.6h.1l-1.8 1.7-6.3-6.3zM1.3 9L.2 7.8c-.1-.1-.2-.2-.2-.4 0-.1.1-.3.2-.4l2.3-2.2c.1-.1.3-.2.4-.2.2 0 .3.1.4.2l1.1 1.1c.2.2.2.6 0 .8-.2.2-.6.2-.9 0L2.9 6 1.5 7.4l.7.7c.2.2.2.6 0 .8-.2.2-.3.2-.5.2-.1 0-.3 0-.4-.1zm2.4 2.4c-.2-.2-.2-.6 0-.8l2.4-2.2c.2-.2.6-.2.8 0 .2.2.2.6 0 .8l-2.4 2.2c-.1.1-.3.2-.4.2-.2 0-.3-.1-.4-.2zm-1.3-1.2c-.2-.2-.2-.6 0-.8l2.4-2.2c.2-.2.6-.2.9 0 .2.2.2.6 0 .8l-2.4 2.2c-.1.1-.3.2-.4.2-.2 0-.4-.1-.5-.2zm18.5-1.5c.2-.2.6-.2.8 0 .2.2.2.6 0 .8-.2.2-.6.2-.8 0-.3-.2-.3-.5 0-.8zm-4.3.7L21.1 5l-1-.3c-.5-.2-1.1-.2-1.6 0-.5 0-1.3-.1-1.5-.2L13.3.9c-.6-.6-1.4-.9-2.2-.9S9.5.3 8.9.9l-.4.4 8.1 8.1z"/>
</symbol><symbol id="icon-dislike-full" viewBox="-290.1 387.3 22.1 20.1">
    <path d="M-290.1 398.5c0 .6.4 1 1 1h3c.6 0 1-.4 1-1v-8c0-.6-.4-1-1-1h-3c-.6 0-1 .4-1 1v8zm6.4-.4c0 .9 1.1 1.4 1.1 1.4s2.1.7 4.6 2.8c2.5 2.1 3.2 3.9 3.9 4.9.3.7 2.8 0 2.5-3.9-.4-1.8-1.4-3.5-1.4-3.5s2.1-.7 3.2-1.1c1.1-.4 2.5-1.8 1.4-3.9-1.1-2.1-2.5-5.2-3.3-6.5-.9-1.3-2.6-.9-3.3-.9-2.5.3-6 1.4-6.7 1.7-1.1.4-1.8 1.3-1.8 2.1-.2 1-.2 6-.2 6.9z"/>
</symbol><symbol id="icon-down" viewBox="1 1 12 7">
    <path d="M1.3 2.7l5 5c.4.4 1 .4 1.4 0l5-5c.4-.4.4-1 0-1.4s-1-.4-1.4 0l-5 5h1.4l-5-5c-.4-.4-1-.4-1.4 0s-.4 1 0 1.4z"/>
</symbol><symbol id="icon-edit" viewBox="-295 386 20 20">
    <title>
        Combined Shape
    </title>
    <path d="M-279 398v5c0 .4-.7 1-1 1h-12c-.5 0-1-.5-1-1v-12c0-.5.5-1 1-1h6c.5 0 1-.5 1-1s-.5-1-1-1h-6c-1.5 0-3 1.5-3 3v12c0 1.5 1.5 3 3 3h12c1.5 0 3-1.5 3-3v-5c0-.5-.5-1-1-1s-1 .5-1 1zm-13 4.4l6.1-1.2c.4-.1.7-.3.9-.5l10-10-.1-.5c-.3-2.2-2-3.9-4.1-4.2l-.5-.1-10 10c-.2.2-.4.5-.5.9l-1.8 5.6zm13.1-14.3c.9.3 1.6 1 1.9 1.9l-9.2 9.2-2.7.5.8-2.3v-.1l9.2-9.2z"/>
</symbol><symbol id="icon-facebook" viewBox="0 0 10 19">
    <title>
        facebook
    </title>
    <path d="M9.766.157v2.946H8.014c-.64 0-1.071.134-1.295.402-.223.268-.335.67-.335 1.205v2.11h3.27l-.435 3.303H6.384v8.471H2.97v-8.47H.123V6.82H2.97V4.387c0-1.384.387-2.457 1.161-3.22C4.904.404 5.934.023 7.222.023c1.093 0 1.941.045 2.544.134z" fill-rule="evenodd"/>
</symbol><symbol id="icon-fb" viewBox="0 0 8 18">
    <path d="M1.7 18H5V9h2.5L8 6.2H5v-2c0-.7.4-1.4 1-1.4h1.7V0h-2c-3.3.1-3.9 2-4 3.9v2.3H0V9h1.7v9z"/>
</symbol><symbol id="icon-google" viewBox="0 0 25 15.5">
    <path d="M7.8 0c1.9-.1 3.7.7 5.2 1.9-.6.7-1.3 1.4-2 2-1.8-1.2-4.3-1.6-6-.2-2.5 1.8-2.6 5.9-.2 7.8 2.4 2.1 6.8 1.1 7.5-2.2H7.9V6.6h7.4c.2 2.1-.1 4.3-1.4 6-2.1 2.8-5.9 3.6-9 2.4-3-1.2-5.2-4.4-4.9-7.6.1-4 3.8-7.5 7.8-7.4zm15 4.8V7H25v2.2h-2.2v2.2h-2.2V9.2h-2.2V7h2.2V4.8h2.2z"/>
</symbol><symbol id="icon-heart-full" viewBox="0 1 15.8 14.3">
    <path d="M7.9 3c-.9-1.2-2.4-2-4-2C2 1 0 3 0 5.6c0 5.6 7.9 9.7 7.9 9.7s7.9-4.1 7.9-9.7c0-2.6-1.7-4.6-4-4.6-1.6-.1-3.1.7-3.9 2z"/>
</symbol><symbol id="icon-heart" viewBox="-295 387 20 18.1">
    <style>
        .st0{fill:#427be7}
    </style>
    <path id="SvgjsPath1013" class="st0" d="M-290 389c-1.4 0-3 1.8-3 3.8 0 2.4 1.6 4.9 4.3 7.3 1 .9 2.1 1.7 3.2 2.4.4.2.6.2 1 0 1.1-.7 2.2-1.5 3.2-2.4 2.7-2.4 4.3-4.9 4.3-7.3 0-2.3-1.3-3.8-3.1-3.8-1.3-.1-2.5.6-3.2 1.7-.8 1.2-2.5 1.2-3.3.1-.8-1.1-2.1-1.8-3.4-1.8zm10-2c3 0 5 2.6 5 5.8 0 7.1-10 12.3-10 12.3s-10-5.2-10-12.3c0-3.2 2.5-5.8 5-5.8 2.9 0 5 2 5 2s1.9-2 5-2z"/>
</symbol><symbol id="icon-insta" viewBox="0 0 22 22">
    <path d="M7 0h8c3.9 0 7 3.1 7 7v8c0 3.9-3.1 7-7 7H7c-3.9 0-7-3.1-7-7V7c0-3.9 3.1-7 7-7zM2 15c0 2.8 2.2 5 5 5h8c2.8 0 5-2.2 5-5V7c0-2.8-2.2-5-5-5H7C4.2 2 2 4.2 2 7v8zm9-9c2.8 0 5 2.2 5 5s-2.2 5-5 5-5-2.2-5-5 2.2-5 5-5zm0 8c1.6 0 3-1.3 3-3s-1.4-3-3-3-3 1.3-3 3 1.4 3 3 3zm5-7.5c0-.8.7-1.5 1.5-1.5s1.5.7 1.5 1.5S18.3 8 17.5 8 16 7.3 16 6.5z"/>
</symbol><symbol id="icon-kitchen" viewBox="0 0 34 34">
    <path d="M1 20h11v-1h4v1h2v-1h4v1h8.3v-2c0-1-.6-1.8-1.3-1.8-.9 0-1.3.4-1.3 1.3 0 .4-.3.8-.8.8s-.8-.3-.8-.8c0-1.6 1-2.8 2.8-2.8 1.5 0 2.8 1.4 2.8 3.3v2H33c.5 0 1 .4 1 1v12c0 .6-.5 1-1 1H1c-.5 0-1-.4-1-1V21c0-.6.5-1 1-1zM13.5 3.5V1c0-.5.4-1 1-1h4c.5 0 1 .4 1 1v2.5L24 7v4c0 .6-.5 1-1 1H10c-.6 0-1-.4-1-1V7l4.5-3.5zm-12 29h8.8v-11H1.5v11zm22.3 0h8.8v-11h-8.8v11zM2.8 8.1V4.5c0-.4.3-.8.8-.8s.8.3.8.8v3.6C5.8 8.4 7 9.8 7 11.5 7 13.4 5.4 15 3.5 15S0 13.4 0 11.5c0-1.7 1.2-3.1 2.8-3.4zm11.6-3.4l-3.3 2.6h10.8l-3.3-2.6-.6-.5V1.5h-3v2.7l-.6.5zm-2.6 27.8h10.5v-4.8H11.8v4.8zm10.5-6.2v-4.8H11.8v4.8h10.5zM10.5 8.8v1.8h12V8.8h-12zm-5 2.7c0-1.1-.9-2-2-2s-2 .9-2 2 .9 2 2 2 2-.9 2-2zM26 24c0-.6.4-1 1-1s1 .4 1 1-.4 1-1 1-1-.4-1-1zm-7 0c0-.6.4-1 1-1s1 .4 1 1-.4 1-1 1-1-.4-1-1zm-6 0c0-.6.4-1 1-1s1 .4 1 1-.4 1-1 1-1-.4-1-1zm3 0c0-.6.4-1 1-1s1 .4 1 1-.4 1-1 1-1-.4-1-1zM6 24c0-.6.4-1 1-1s1 .4 1 1-.4 1-1 1-1-.4-1-1z"/>
</symbol><symbol id="icon-left" viewBox="0.5 0.5 7 12">
    <path d="M5.8 12.2l-5-5c-.4-.4-.4-1 0-1.4l5-5c.4-.4 1-.4 1.4 0 .4.4.4 1 0 1.4l-5 5V5.8l5 5c.4.4.4 1 0 1.4-.4.4-1 .4-1.4 0z"/>
</symbol><symbol id="icon-like-empty" viewBox="-294 386 21.9 20">
    
    <clipPath id="b">
        <use xlink:href="#a" overflow="visible"/>
    </clipPath>
    <path clip-path="url(#b)" fill-opacity="0" stroke-width="3" stroke-linecap="round" stroke-linejoin="round" stroke-miterlimit="50" stroke-dasharray="0" d="M-294 395c0-.6.4-1 1-1h3c.6 0 1 .4 1 1v8c0 .6-.4 1-1 1h-3c-.6 0-1-.4-1-1v-8zm6.3.4c0-.9 1.1-1.4 1.1-1.4s2.1-.7 4.6-2.8c2.5-2.1 3.2-3.9 3.9-4.9.4-.7 2.8 0 2.5 3.9-.4 1.8-1.4 3.5-1.4 3.5s2.1.7 3.2 1.1c1 .4 2.5 1.8 1.4 3.9-1.1 2.1-2.5 5.2-3.3 6.4-.9 1.3-2.6.9-3.3.9-2.5-.3-6-1.4-6.7-1.7-1.1-.4-1.8-1.3-1.8-2.1-.2-.9-.2-5.9-.2-6.8z"/>
</symbol><symbol id="icon-like-full" viewBox="-290.1 387.6 21.9 20">
    <style>
        .st0{fill:#427be7}
    </style>
    <path id="SvgjsPath1015" class="st0" d="M-290.1 396.5c0-.6.4-1 1-1h3c.6 0 1 .4 1 1v8c0 .6-.4 1-1 1h-3c-.6 0-1-.4-1-1v-8zm6.4.4c0-.9 1.1-1.4 1.1-1.4s2.1-.7 4.6-2.8 3.2-3.9 3.9-4.9c.3-.7 2.8 0 2.5 3.9-.4 1.8-1.4 3.5-1.4 3.5s2 .7 3 1c1.1.3 2.5 1.8 1.4 3.9s-2.5 5.2-3.3 6.5c-.9 1.3-2.6.9-3.3.9-2.5-.3-6-1.4-6.7-1.7-1.1-.4-1.8-1.3-1.8-2.1v-6.8z"/>
</symbol><symbol id="icon-like" viewBox="1 0 26 29.3">
    <path d="M5.8 13.2c.5 0 1 0 1.5.1h.2c.1 0 .2-.1.4-.1.4-.2.8-.3 1.1-.6.7-.6 1.4-1.5 2-2.2l.4-.6c.8-1 1.8-2.3 2.3-3.7.3-.7.4-1.4.3-2.3v-.5c0-.7-.1-1.3.1-1.9.3-.9 1-1.5 2-1.5.7 0 1.3.3 1.9.7 1.3.9 2.1 2.7 2.3 4.7.1 1.1-.3 2.1-.6 3-.3.8-.6 1.6-.5 2.4 0 1.3 1.1 1.6 2.6 2 .2 0 .3.1.5.1s.4.1.5.1c1.1.2 2.4.4 3.4 1.3.7.7 1.1 1.9.9 3-.1.8-.5 1.5-1.1 1.8.4 1.3-.3 2.9-1.6 3.8.1.6 0 1.3-.3 2-.4.7-1 1.3-1.6 1.6 0 1.2-.8 2.3-2.2 2.7-.4.1-.8.1-1.2.1-.7 0-1.3-.1-2-.2-.2 0-.4-.1-.7-.1-.4-.1-.8-.1-1.2-.2-.8-.1-1.7-.2-2.5-.6-.6-.3-1.2-.7-1.7-1.1-.2-.1-.3-.3-.5-.4-.2-.1-.4-.3-.5-.5-.3-.3-.6-.6-.9-.7-.3-.1-.5-.1-.8-.1-.3 0-.6-.1-.8-.1H6.3c-.4 0-.8.1-1.1.1-.9 0-2.1-.1-2.8-1.1-1.2-1-1.4-3-1.4-5v-.1c0-1.5 0-3.7 1.3-4.8 1-1 2.5-1.1 3.5-1.1zm2.7 10.7c.4 0 .8 0 1.3.3.4.1.8.5 1.1.8.1.1.3.2.4.3.2.1.3.2.5.4.5.4 1 .8 1.5 1 .3.1.6.1.9.2l.6.1c1.3.2 2.6.3 3.8.5.4 0 .9 0 1.3-.1.3 0 .4-.2.5-.3.2-.3.2-.6 0-1-.1-.2-.1-.5.1-.7.2-.3.6-.5.9-.5h.1c.3 0 .5-.2.7-.6.2-.5.3-1 .1-1.3-.2-.2-.2-.6-.1-.9.1-.3.3-.4.6-.5.6-.2 1-.6 1.2-1.1.1-.5.1-1-.1-1.2-.2-.3-.2-.7-.1-1 .1-.3.3-.4.6-.5.6-.1.8-.6.8-1 .1-.7-.4-1.2-.9-1.5-.8-.4-1.7-.6-2.6-.7l-1.5-.3c-1.6-.4-2.8-1.7-2.9-3.2-.1-1.1.3-2.1.6-3.1.3-.8.5-1.6.6-2.4 0-.8-.2-1.6-.6-2.5-.4-.7-1.1-1.4-1.7-1.4h-.1c-.3.1-.3.7-.3 1.3v.2c.1 1 .1 1.9-.2 2.8-.3 1.3-1.1 2.4-1.8 3.5-.2.2-.3.5-.5.7-.7 1-1.6 2.1-2.5 3.1-.2.2-.4.5-.6.6-.1.1-.1.2-.2.2-.6.5-1.2.7-2 .9-.6.1-1.1.2-1.3.6-.5.9-.5 2.1-.5 3.1v.3c0 1 0 2.3.3 3.3s.8 1.5 2 1.6zm-5.7-4.7c0 1.5.1 3.1.8 4.1.3.4.7.4 1.4.4h.1c-.4-.8-.5-1.7-.6-2.5-.2-1.5-.1-3 0-4.3.1-.6.2-1.3.5-1.9-.5.1-1.1.2-1.5.6-.7.6-.7 2.2-.7 3.2v.4z"/>
</symbol><symbol id="icon-login" viewBox="-297 389 16 16">
    <path d="M-284.5 396l-2.2-2.3c-.4-.4-.4-1 0-1.4.4-.4 1-.4 1.4 0l4 4c.4.4.4 1 0 1.4l-4 4c-.4.4-1 .4-1.4 0-.4-.4-.4-1 0-1.4l2.2-2.3h-7.6c-.5 0-.9-.4-.9-1s.4-1 .9-1h7.6zm-5.5-7c.6 0 1 .4 1 1s-.4 1-1 1h-4c-.6 0-1 .4-1 1v10c0 .6.4 1 1 1h3c.6 0 1 .4 1 1s-.4 1-1 1h-3c-1.7 0-3-1.3-3-3v-10c0-1.7 1.3-3 3-3h4z"/>
</symbol><symbol id="icon-medal" viewBox="0 0 26.4 32.5">
    <path d="M22.6 22.6c.6-.6.8-1.4.8-2.9v-.3c0-1 0-1.5.2-1.9.1-.4.4-.7 1.1-1.4l.1-.1c1.2-1.2 1.6-1.9 1.6-2.8 0-1-.5-1.7-1.7-2.9-.7-.7-1-1-1.1-1.4-.2-.4-.2-.8-.2-1.9v-.3c0-1.5-.2-2.3-.8-2.9-.7-.6-1.4-.8-2.9-.8h-.3c-1 0-1.5 0-1.9-.2-.4-.2-.7-.4-1.4-1.1l-.1-.1C14.9.4 14.2 0 13.2 0c-1 0-1.6.4-2.9 1.7-.7.7-1 1-1.4 1.1-.4.2-.8.3-1.8.3h-.3c-1.5 0-2.3.2-2.9.8-.7.7-.9 1.4-.9 3.2C3 8.2 3 8.6 2.8 9c-.1.4-.4.7-1.1 1.4l-.1.1C.5 11.6 0 12.3 0 13.2c0 1 .4 1.7 1.7 2.9.7.7 1 1 1.1 1.4.2.4.2.9.2 1.9v.3c0 1.5.2 2.3.8 2.9.1.1.2.2.3.2l-2.9 5c-.1.2-.1.5 0 .7.1.2.3.4.6.4l3.5.4 2.1 2.8c.1.2.3.3.6.3.2 0 .5-.2.6-.4l3.4-5.9c.4.2.8.3 1.2.3.4 0 .8-.1 1.2-.3l3.4 5.9c.1.2.3.3.6.4.2 0 .4-.1.6-.3l2.1-2.8 3.5-.4c.2 0 .5-.2.5-.4.1-.2.1-.5 0-.7l-2.9-5c.2 0 .3-.1.4-.2zm-13.1-.3c-.5-.2-1.1-.3-2-.3h-.4c-1.3 0-1.8-.1-2.2-.4-.3-.3-.4-.8-.4-2.2 0-1.3-.1-1.8-.3-2.4-.2-.6-.6-1-1.3-1.8l-.1-.1-.1-.1c-.9-.9-1.2-1.3-1.2-1.8s.3-.9 1.3-1.9c.9-.9 1.2-1.3 1.5-1.9.2-.5.3-1.1.3-2V7c0-1.3.1-1.9.4-2.2.3-.3.8-.4 2.2-.4 1.3 0 1.8 0 2.4-.3.6-.2 1-.6 1.8-1.4l.1-.1.1-.1c.9-.9 1.3-1.2 1.8-1.2s.9.3 1.9 1.3c.7 1 1.1 1.3 1.7 1.6.5.2 1.1.3 2 .3h.4c1.3 0 1.8.1 2.2.4.3.3.4.8.4 2.2 0 1.3.1 1.8.3 2.4.2.6.6 1 1.3 1.8 0 .1 0 .1.1.1l.1.1c.9.9 1.2 1.3 1.2 1.8s-.3.9-1.3 1.9c-.9.9-1.2 1.3-1.5 1.9-.2.4-.2 1-.2 1.9v.4c0 1.3-.1 1.9-.4 2.2-.3.3-.8.4-2.2.4-1.3 0-1.8.1-2.4.3-.6.2-1 .6-1.8 1.4-.1 0-.1 0-.1.1-1 1-1.4 1.3-1.9 1.3s-.9-.3-1.9-1.3c-.8-.9-1.2-1.3-1.8-1.5zm.6-3.5c.2 0 .4 0 .6-.1h.1l2.1-1.1 2.1 1.1c1.2.6 2.5-.4 2.3-1.7l-.4-2.4 1.7-1.7c.9-.9.4-2.5-.8-2.7l-2.4-.4-1.1-2.1c-.6-1.2-2.3-1.2-2.9 0l-1.1 2.1-2.4.4C6.6 10.5 6.1 12 7 13l1.7 1.7-.4 2.3c-.1.9.5 1.8 1.4 1.9l.4-.1zm-3.8 9.5c-.1-.2-.3-.3-.5-.3l-2.7-.3 2.5-4.3c.4.1.8.1 1.5.1H8l-1.7 3c-.2.3-.1.8.3 1 .1.1.2.1.4.1.3 0 .5-.1.6-.4l1.9-3.3c.2.2.5.4 1 .9.2.3.4.4.5.5l-3 5.1-1.7-2.1zm13.9 0l-1.6 2.2-3-5.1.5-.5c.5-.5.8-.8 1-.9l1.9 3.4c.1.2.4.4.6.4.1 0 .3 0 .4-.1.3-.2.5-.6.3-1l-1.7-3h1.1c.5 0 .9 0 1.2-.1l2.5 4.3-2.7.1c-.2 0-.4.1-.5.3zm-2-4.8l.2-.4.2.3c-.1.1-.3.1-.4.1zm5.5 4.1l-.2.4-.2-.3.4-.1zM8.2 23.1l.2.4H8l.2-.4zM2.9 28l-.2-.4h.4l-.2.4zm15.8 2.8h-.4l.2-.3.2.3zm-10.6-.1h-.4l.2-.3.2.3zm1.1-6.9l.1-.2.2.1-.1.2c-.1-.1-.2-.1-.2-.1zm7.9-.1c-.1-.1-.1-.1 0 0l.2-.2.1.2c-.1 0-.1.1-.2.1l-.1-.1zM11 25.1v.3c-.1 0-.1-.1-.2-.1l.2-.2zm4.4.3v-.3l.1.2s0 .1-.1.1zm-10-2.1l.3-.1-.1.2c-.1 0-.2-.1-.2-.1zm15.4-.1l.3.1h-.2l-.1-.1zm-11.3.5c0-.1 0-.1 0 0zm.6-6.4c-.1 0-.1-.1-.1-.1l.5-3.1-2.2-2.2c-.1-.1 0-.2.1-.2l3.1-.5 1.4-2.8c0-.1.2-.1.2 0l1.4 2.8 3.1.5c.1 0 .1.1.1.2L15.5 14l.5 3.1c0 .1-.1.2-.2.1L13 15.8l-2.9 1.5z"/>
</symbol><symbol id="icon-next" viewBox="0 36.2 20 12.6">
    <path d="M16.4 43.6L12.9 47c-.4.4-.4 1.1 0 1.5.4.4 1.1.4 1.5 0l5.3-5.3c.4-.4.4-1.1 0-1.5l-5.3-5.3c-.4-.4-1.1-.4-1.5 0-.4.4-.4 1.1 0 1.5l3.5 3.5H1.1c-.5 0-1.1.4-1.1 1.1 0 .6.5 1.1 1.1 1.1h15.3z"/>
</symbol><symbol id="icon-od" viewBox="1 0 12 20.7">
    <path d="M12.3 5.3C12.3 2.4 9.9 0 7 0S1.7 2.4 1.7 5.3c0 3 2.4 5.3 5.3 5.3s5.3-2.3 5.3-5.3zm-3.1 0c0 1.2-1 2.2-2.2 2.2s-2.2-1-2.2-2.2 1-2.2 2.2-2.2 2.2 1 2.2 2.2zm3.1 8.5c.7-.5 1-1.4.5-2.2-.5-.7-1.4-.9-2.2-.5-2.2 1.4-5 1.4-7.2 0-.7-.5-1.7-.2-2.2.5-.5.7-.2 1.7.5 2.2 1 .6 2 1 3.1 1.3l-3 3c-.6.6-.6 1.6 0 2.2.3.3.7.5 1.1.5.4 0 .8-.2 1.1-.5l3-3 2.9 2.9c.6.6 1.6.6 2.2 0s.6-1.6 0-2.2l-3-3c1.2-.2 2.2-.6 3.2-1.2z"/>
</symbol><symbol id="icon-pen" viewBox="0 0 13.7 26.8">
    <path d="M7.7 2.3c.3-.2.5-.6.5-1C8.2.6 7.6 0 6.9 0c-.7 0-1.3.6-1.3 1.3 0 .4.2.7.4.9C5.3 3.6 2.2 9.6.2 12l-.1.1c-.1.3-.1.7 0 .9.1.1 2 3.3 2.2 9.7h-.4c-.4 0-.8.4-.8.8V26c0 .5.4.8.8.8h9.5c.5 0 .8-.4.8-.8v-2.5c0-.5-.4-.8-.8-.8h-.3c.3-3.8 1.1-8.3 2.4-9.5.3-.3.3-.7.1-1-1.4-2.2-5-7.8-5.9-9.9zm-5 22.8v-.8h7.9v.8H2.7zm1.2-2.4c-.1-5.5-1.5-8.8-2.1-10 1.5-2 3.4-5.5 4.6-7.8v4.9c-.4.2-.7.6-.7 1 0 .6.5 1.2 1.2 1.2.6 0 1.1-.5 1.1-1.2 0-.5-.3-.9-.7-1.1V5.1c1.5 2.6 3.7 6.1 4.6 7.4-1.5 2.2-2.2 7.3-2.4 10.2H3.9z"/>
</symbol><symbol id="icon-phone" viewBox="-293 386 21.1 21">
    <style>
        .st0{fill:#427be7}
    </style>
    <path id="SvgjsPath1022" class="st0" d="M-277 400.1l-.1-.1c-.1 0-.1 0-.2.1l-2.3 2.3-1.3-.7c-1.6-.9-2.7-1.6-3.9-2.8s-1.9-2.3-2.8-3.9l-.7-1.3 1.1-1.1 1.2-1.2c.1-.1.1-.3 0-.3l-3-3.1h-.1c-.1 0-.1 0-.2.1l-.1.1-.6.6c-.4.5-.6 1.2-.8 2-.5 2.5.8 5.2 4.9 9.3 2.1 2.1 4.1 3.4 6.1 4.2 1.3.5 2.4.7 3.1.7h.2c1.3-.1 1.8-.4 2.5-1.4.2-.2.2-.4.1-.5l-3.1-3zm4.5 1.7c.8.8.8 2.1 0 3.1-.6.8-1.5 1.8-3.8 2.1h-.5c-1.2 0-5.5-.4-10.6-5.5-4.5-4.5-6.1-7.8-5.4-11.1.5-2.4 1.8-3.6 2.1-3.8.4-.4 1-.6 1.6-.6s1.1.2 1.5.6l3 3c.9.9.9 2.3 0 3.2l-1.2 1.2c.5.9 1.2 2.1 2.5 3.4 1.3 1.3 2.5 2 3.4 2.5l1.2-1.2c.4-.4 1-.7 1.6-.7.6 0 1.1.2 1.6.6l3 3.2z"/>
</symbol><symbol id="icon-prev" viewBox="0 36.2 20 12.6">
    <path d="M18.9 43.6c.5 0 1.1-.4 1.1-1.1 0-.6-.5-1.1-1.1-1.1H3.6L7.1 38c.4-.4.4-1.1 0-1.5-.4-.4-1.1-.4-1.5 0L.3 41.8c-.4.4-.4 1.1 0 1.5l5.3 5.3c.4.4 1.1.4 1.5 0 .4-.4.4-1.1 0-1.5l-3.5-3.5h15.3z"/>
</symbol><symbol id="icon-reload" viewBox="0 0 12 16.1">
    <title>
        Combined Shape
    </title>
    <path d="M6.6 11.7c2-.3 3.5-2.1 3.5-4.1 0-.5-.1-1-.2-1.4-.2-.5 0-1.1.5-1.2.5-.2 1.1.1 1.2.6.2.7.3 1.3.3 2 0 3.2-2.4 5.8-5.5 6.1l.8.8c.4.4.4 1 0 1.4-.2.2-.5.3-.7.3s-.4-.2-.6-.3l-2.4-2.4c-.4-.4-.4-1 0-1.4l2.4-2.4c.4-.4 1-.4 1.4 0 .4.4.4 1 0 1.4l-.7.6zm-5.3-.5c-.4 0-.8-.2-.9-.6C.1 9.9 0 9.2 0 8.5c0-3.2 2.4-5.8 5.5-6.1l-.7-.8c-.4-.4-.4-1 0-1.4.4-.4 1-.4 1.4 0l2.4 2.4c.2.2.3.4.3.7 0 .2-.1.5-.3.7L6.2 6.5c-.2.2-.5.3-.7.3-.3 0-.5-.1-.7-.2-.4-.4-.4-1 0-1.4l.8-.9C3.6 4.6 2 6.4 2 8.5c0 .5 0 1 .2 1.4.2.5-.1 1.1-.6 1.2-.1.1-.2.1-.3.1z"/>
</symbol><symbol id="icon-right" viewBox="0.5 0.5 7 12">
    <path d="M2.2 12.2l5-5c.4-.4.4-1 0-1.4l-5-5C1.8.4 1.2.4.8.8c-.4.4-.4 1 0 1.4l5 5V5.8l-5 5c-.4.4-.4 1 0 1.4.4.4 1 .4 1.4 0z"/>
</symbol><symbol id="icon-sale" viewBox="0 0 24 24">
    <title>
        Combined Shape
    </title>
    <path d="M12.572.821L21.1.778c1.422-.007 2.129.7 2.122 2.122l-.043 8.528-11.444 11.444c-.78.78-2.044.78-2.821.004l-7.79-7.79a2 2 0 0 1 .004-2.821L12.572.821zm.7 2.129l7.818-.04-.04 7.818-10.713 10.714-7.779-7.779L13.272 2.95zm2.996 4.782c.977.976 2.568.968 3.554-.018.986-.986.994-2.577.018-3.554-.977-.976-2.568-.968-3.554.018-.986.986-.994 2.577-.018 3.554zm1.125-1.125a1 1 0 1 0 1.415-1.415 1 1 0 0 0-1.415 1.415zm-7.778 4.242a2 2 0 1 0 2.829-2.828 2 2 0 0 0-2.829 2.828zm0 7.071a2 2 0 1 0 2.829-2.828 2 2 0 0 0-2.829 2.828zM5.53 12.857c0-.415.342-.75.757-.75h9.487c.418 0 .756.333.756.75 0 .414-.34.75-.756.75H6.286a.751.751 0 0 1-.757-.75zm5.147-3.068a.5.5 0 1 0 .707-.708.5.5 0 0 0-.707.708zm0 7.07a.5.5 0 1 0 .707-.706.5.5 0 0 0-.707.707z" fill-rule="evenodd"/>
</symbol><symbol id="icon-search" viewBox="-295 387 19 19">
    <style>
        .st0{fill:#427be7}
    </style>
    <path id="SvgjsPath1016" class="st0" d="M-277.7 405.7c.4.4 1 .4 1.4 0 .4-.4.4-1 0-1.4l-5-5c1-1.3 1.6-2.9 1.6-4.6 0-4.2-3.4-7.6-7.6-7.6-4.2 0-7.6 3.4-7.6 7.6 0 4.2 3.4 7.6 7.6 7.6 1.7 0 3.3-.6 4.6-1.6l5 5zm-9.7-5.4c-3.1 0-5.6-2.5-5.6-5.6 0-3.1 2.5-5.6 5.6-5.6 3.1 0 5.6 2.5 5.6 5.6 0 3-2.5 5.6-5.6 5.6z"/>
</symbol><symbol id="icon-settings" viewBox="0 0 24 24">
    <path d="M12.7 0c1.4 0 2.5 1.1 2.6 2.4l.1.2c.3.1.6.2.9.4l.2-.1c1-.9 2.5-.8 3.5.2l1 .9c1 1 1 2.5.2 3.6l-.2.1c.1.3.3.6.4.9l.2.1C23 8.8 24 10 24 11.3v1.3c0 1.4-1 2.5-2.4 2.6l-.2.1c-.1.3-.2.6-.4.9l.1.2c.9 1.1.8 2.6-.1 3.6l-1 1c-1 1-2.5 1-3.6.2l-.1-.2c-.3.1-.6.3-.9.4l-.1.2C15.2 23 14 24 12.7 24h-1.3c-1.4 0-2.5-1-2.6-2.4l-.1-.2c-.4-.1-.7-.2-1-.4l-.2.1c-1 .9-2.5.8-3.5-.1l-1-1c-.5-.5-.8-1.2-.8-1.9 0-.6.2-1.2.6-1.7l.2-.1c-.1-.3-.3-.6-.4-.9l-.2-.1C1 15.2 0 14 0 12.7v-1.3C0 10 1 8.8 2.4 8.7l.2-.1c.1-.3.2-.6.4-.9l-.1-.1c-.4-.5-.6-1.1-.6-1.7 0-.7.2-1.4.7-1.9l1-.9c1-1 2.5-1.1 3.6-.2l.1.1c.3-.2.6-.3.9-.4l.1-.2C8.8 1.1 10 0 11.3 0h1.4zm-1.4 2c-.4 0-.6.3-.7.6v.2l-.1.2-.1.2-.3.9-.8.4c-.3.1-.5.2-.7.3l-.9.4-.8-.4-.2-.1-.2-.1-.2-.2c-.3-.2-.7-.2-.9.1l-.9.9c-.2.1-.2.3-.2.5 0 .1 0 .3.1.4l.1.2.1.2.1.2.4.9-.3.8c-.1.2-.2.4-.3.7l-.3.9-1.3.4h-.2c-.4.1-.7.4-.7.7v1.3c0 .3.3.6.6.7h.2l1.3.4.3.9c.1.2.2.5.3.7l.4.9-.4.9-.1.2-.1.2-.1.2c-.1.1-.1.3-.1.4 0 .2.1.4.2.5l.9.9c.2.2.6.3.9 0l.2-.1.2-.1.2-.1.9-.4.9.4c.2.1.5.2.7.3l.9.3.3.9.1.2.1.2v.2c0 .3.3.6.7.6h1.3c.3 0 .6-.3.7-.6v-.2l.1-.2.4-1.1.9-.3c.2-.1.4-.2.7-.3l.9-.4.9.4.4.2.2.1c.3.2.7.2.9 0l.9-.9c.3-.2.3-.6 0-.9l-.1-.2-.1-.2-.1-.2-.4-.9.4-.9c.1-.2.2-.5.3-.7l.3-.9.9-.3.2-.1.2-.1h.2c.3 0 .6-.3.6-.7v-1.3c0-.4-.3-.6-.6-.7h-.2l-.2-.1-.2-.1-.9-.3-.3-.9c-.1-.2-.2-.5-.3-.7l-.4-.9.4-.9.1-.2.1-.2.1-.2c.2-.3.2-.7 0-.9l-.9-.9c-.2-.2-.6-.3-.9 0l-.2.1-.4.2-.9.4-.9-.4c-.2-.1-.5-.2-.7-.3l-.9-.3-.3-.9-.1-.4v-.2c-.3-.1-.6-.4-.9-.4h-1.4zM8 12c0-2.2 1.8-4 4-4s4 1.8 4 4-1.8 4-4 4-4-1.8-4-4zm6 0c0-1.1-.9-2-2-2s-2 .9-2 2 .9 2 2 2 2-.9 2-2z"/>
</symbol><symbol id="icon-star" viewBox="28.9 0 2.1 2">
    <path d="M29.4 2c-.1 0-.1 0 0 0l.1-.7-.5-.5.7-.1.3-.7.3.6.7.1-.5.5.2.8-.7-.3-.6.3z"/>
</symbol><symbol id="icon-tools" viewBox="1 0 26.8 24.7">
    <path d="M17.6 16.6c.2-.2.2-.6 0-.8l-1-1 5.3-5.3h2.5c.2 0 .4-.1.5-.3l2.8-5.5c.1-.2.1-.5-.1-.7l-1.4-1.4c-.2-.2-.4-.2-.7-.1L20 4.3c-.2.1-.3.3-.3.5v2.5l-5.3 5.3-.9-.9c-.2-.2-.6-.2-.8 0l-7.1 7.1c-.7.7-1 1.5-1 2.5 0 .9.4 1.8 1 2.5s1.5 1 2.5 1c.9 0 1.8-.4 2.4-1.1l7.1-7.1zM6.4 19.5l6.7-6.7.9.9c.2.2.6.2.8 0l5.9-5.9c.1-.1.2-.3.2-.4V5.1l4.8-2.4.8.8-2.4 4.8h-2.4c-.2 0-.3.1-.4.2l-5.9 5.9c-.1.1-.2.2-.2.4s.1.3.2.4l1 1-6.7 6.7c-.4.4-1 .7-1.6.7-.6 0-1.2-.3-1.7-.7-.4-.4-.6-1-.6-1.6-.1-.7.1-1.3.6-1.8zM24 23.2c.5-.5.8-1.2.8-2s-.3-1.5-.8-2l-5-5c-.2-.2-.6-.2-.8 0-.2.2-.2.6 0 .8l5 5c.3.3.5.7.5 1.2s-.2.9-.5 1.2c-.6.7-1.7.7-2.3 0l-3.7-3.7c-.2-.2-.6-.2-.8 0-.2.2-.2.6 0 .8l3.7 3.7c.6.5 1.3.8 2 .8.6 0 1.4-.3 1.9-.8zM1.2 4.4c.1-.3.3-.5.5-.5.3-.1.5-.1.7.1l2.1 2.1c.2.2.4.3.7.3s.5-.1.7-.3l.9-.9c.4-.4.4-1 0-1.4L4.7 1.5c-.2-.2-.2-.4-.2-.7.1-.2.3-.5.5-.5 2-.7 4.3-.1 5.8 1.4 1.3 1.2 1.8 2.9 1.7 4.7-.1.8.2 1.4.7 1.9l2 2c.2.2.2.6 0 .8-.2.2-.6.2-.8 0l-2-2c-.8-.8-1.1-1.8-1-2.9.1-1.4-.4-2.8-1.4-3.7C9 1.4 7.5 1 6.1 1.2l1.6 1.7c.8.8.8 2.2 0 3.1l-.9.8c-.4.4-1 .6-1.6.7-.6 0-1.1-.2-1.5-.6L2.2 5.4C2.1 6.7 2.6 8 3.5 9c.9.9 2.2 1.4 3.5 1.3 1-.1 2 .3 2.7 1l.7.7c.2.2.2.6 0 .8-.1.1-.3.1-.4.1-.1 0-.3-.1-.4-.1l-.7-.7c-.5-.5-1.1-.7-1.8-.7-1.7.2-3.3-.4-4.4-1.6-1.4-1.4-2-3.5-1.5-5.4z"/>
</symbol><symbol id="icon-tw" viewBox="0 1 17 14">
    <path d="M17 2.7c-.1.6-1 1.3-1.6 1.8.6 8.1-8.7 13.2-15.4 9 1.9 0 4-.5 5.1-1.6-1.6-.3-2.8-1-3.2-2.4.5 0 1.2.1 1.5-.1C1.9 8.9.7 8 .6 6c.5.1.8.4 1.5.3C1.1 5.7 0 3.4 1 1.6c1.8 2 4 3.5 7.4 3.8-.8-3.6 3.9-5.8 6.1-3.2.8-.2 1.5-.5 2.3-.8-.3.8-.9 1.3-1.5 1.9.6-.2 1.3-.3 1.7-.6z"/>
</symbol><symbol id="icon-up" viewBox="1 1 12 7">
    <path d="M2.7 7.7l5-5H6.3l5 5c.4.4 1 .4 1.4 0s.4-1 0-1.4l-5-5c-.4-.4-1-.4-1.4 0l-5 5c-.4.4-.4 1 0 1.4s1 .4 1.4 0z"/>
</symbol><symbol id="icon-user" viewBox="-297 387 16 19">
    <style>
        .st0{fill:#427be7}
    </style>
    <path id="SvgjsPath1010" class="st0" d="M-289 398c5.6 0 8 4 8 4v3c0 .6-.4 1-1 1h-14c-.5 0-1-.4-1-1v-3s2.4-4 8-4zm-6 6h12v-1.4c-.3-.4-.7-.7-1.1-1.1-1.3-1-2.9-1.6-4.9-1.6s-3.6.6-4.9 1.6c-.4.4-.8.7-1.1 1.1v1.4zm6-9c-1.7 0-3-1.3-3-3s1.3-3 3-3 3 1.3 3 3-1.3 3-3 3zm0 2c2.8 0 5-2.2 5-5s-2.2-5-5-5-5 2.2-5 5 2.2 5 5 5z"/>
</symbol><symbol id="icon-view" viewBox="1 0 16 10">
    <title>
        Path
    </title>
    <path d="M17 5.2c-1.6 3-4.7 4.8-8 4.8S2.6 8.2 1 5.2v-.4C2.6 1.8 5.7 0 9 0c.6 0 1.1.1 1.6.2C9.8.4 9.2 1.1 9 2 5.5 2 3.3 5 3.3 5S5.5 8 9 8s5.8-3 5.8-3-.4-.6-1.2-1.2c.3-.3.4-.8.4-1.3 0-.4-.1-.8-.3-1.2 1.3.8 2.5 2 3.2 3.5.1.1.1.3.1.4zM6 5c0-1.7 1.3-3 3-3v.5C9 3.9 10.1 5 11.5 5h.5c0 1.7-1.3 3-3 3S6 6.7 6 5z"/>
</symbol><symbol id="icon-vk" viewBox="0 1 21.5 13">
    <path d="M10.5 13.9h1.3s.4 0 .6-.3c.2-.2.2-.6.2-.6s0-1.8.8-2.1c.8-.3 1.8 1.8 2.9 2.5.8.6 1.4.5 1.4.5h2.9s1.5-.1.8-1.4c-.1-.1-.4-.9-2.1-2.6-1.8-1.8-1.6-1.5.6-4.6 1.3-1.9 1.8-3 1.7-3.5-.2-.5-1.1-.3-1.1-.3h-3.2s-.2 0-.4.1-.3.4-.3.4-.5 1.5-1.2 2.7c-1.4 2.6-2 2.7-2.3 2.6-.5-.4-.4-1.5-.4-2.3 0-2.5.4-3.6-.7-3.8-.5-.1-.8-.2-1.7-.2-1.1 0-2.1 0-2.6.3-.4.2-.7.6-.5.6.2 0 .7.1.9.5.4.5.4 1.6.4 1.6s.2 3-.4 3.3c-.5.3-1.1-.2-2.4-2.6C5 3.5 4.5 2.2 4.5 2.2s-.1-.3-.2-.4c-.2-.2-.5-.2-.5-.2H.7s-.5 0-.6.2c-.1.2 0 .6 0 .6s2.4 6 5.1 9c2.5 2.7 5.3 2.5 5.3 2.5z"/>
</symbol><symbol id="icon-youtube" viewBox="0 0 22 15.5">
    <path d="M8.7 4.4l5.9 3.1-5.9 3.1V4.4zm12.2-3.2c-.8-.9-1.8-.9-2.2-.9C15.6 0 11 0 11 0S6.4 0 3.3.2c-.4 0-1.4.1-2.2.9-.7.7-.9 2.2-.9 2.2S0 5.1 0 6.9v1.7c0 1.8.2 3.6.2 3.6s.2 1.5.9 2.2c.8.9 1.9.9 2.4.9 1.8.2 7.5.2 7.5.2s4.6 0 7.7-.2c.4 0 1.4 0 2.2-.9.7-.7.9-2.2.9-2.2s.2-1.9.2-3.6V6.9c0-1.8-.2-3.6-.2-3.6s-.2-1.5-.9-2.1z"/>
</symbol></svg>