<svg xmlns="http://www.w3.org/2000/svg" viewBox="0 1 95.9 15.1">
    <path fill="#427BE7" d="M3 15.9l.9-5.2L0 7c0-.1 0-.4.2-.4l5.3-.8 2.4-4.7c0-.1.2-.1.3 0l2.4 4.7 5.3.8c.1 0 .1.3.1.4l-3.8 3.7.8 5.2c0 .1-.2.3-.3.2L8 13.7l-4.7 2.4h-.1c-.2 0-.2-.1-.2-.2zm40-.1l.8-5.2L40 6.9c-.1-.1 0-.3.1-.3l5.2-.8 2.4-4.7c.1-.1.3-.1.4 0l2.4 4.7 5.2.8c.1 0 .2.2.1.3l-3.7 3.7.8 5.2c0 .2-.2.3-.3.2l-4.7-2.4-4.7 2.4h-.1c-.1 0-.2-.1-.1-.2zm-20 0l.8-5.2L20 6.9c-.1-.1 0-.3.1-.3l5.2-.8 2.4-4.7c.1-.1.3-.1.4 0l2.4 4.7 5.2.8c.1 0 .2.2.1.3l-3.7 3.7.8 5.2c0 .2-.2.3-.3.2l-4.7-2.4-4.7 2.4h-.1c-.1 0-.2-.1-.1-.2zm40 0l.8-5.2L60 6.9c-.1-.1 0-.3.1-.3l5.2-.8 2.4-4.7c.1-.1.3-.1.4 0l2.4 4.7 5.2.8c.1 0 .2.2.1.3l-3.7 3.7.8 5.2c0 .2-.2.3-.3.2l-4.7-2.4-4.7 2.4h-.1c-.1 0-.2-.1-.1-.2zm20 0l.8-5.2L80 6.9c-.1-.1 0-.3.1-.3l5.2-.8 2.4-4.7c.1-.1.3-.1.4 0l2.4 4.7 5.2.8c.1 0 .2.2.1.3l-3.7 3.7.8 5.2c0 .2-.2.3-.3.2l-4.7-2.4-4.7 2.4h-.1c-.1 0-.2-.1-.1-.2z"/>
</svg>
