<?xml version="1.0" encoding="utf-8"?>
<!-- Generator: Adobe Illustrator 18.0.0, SVG Export Plug-In . SVG Version: 6.00 Build 0)  -->
<!DOCTYPE svg PUBLIC "-//W3C//DTD SVG 1.1//EN" "http://www.w3.org/Graphics/SVG/1.1/DTD/svg11.dtd">
<svg version="1.1" id="SvgjsSvg1000" xmlns:svgjs="http://svgjs.com/svgjs"
	 xmlns="http://www.w3.org/2000/svg" xmlns:xlink="http://www.w3.org/1999/xlink" x="0px" y="0px" viewBox="1 0 16 10"
	 enable-background="new 1 0 16 10" xml:space="preserve">
<title>Path</title>
<desc>Created with Avocode.</desc>
<path id="SvgjsPath1007" fill="#D9DBE1" d="M17,5.2C15.4,8.2,12.3,10,9,10S2.6,8.2,1,5.2C1,5.1,1,4.9,1,4.8C2.6,1.8,5.7,0,9,0
	c0.6,0,1.1,0.1,1.6,0.2C9.8,0.4,9.2,1.1,9,2c0,0,0,0,0,0C5.5,2,3.3,5,3.3,5S5.5,8,9,8s5.8-3,5.8-3s-0.4-0.6-1.2-1.2
	C13.9,3.5,14,3,14,2.5c0-0.4-0.1-0.8-0.3-1.2c1.3,0.8,2.5,2,3.2,3.5C17,4.9,17,5.1,17,5.2z M6,5c0-1.7,1.3-3,3-3c0,0,0,0,0,0
	c0,0.2,0,0.3,0,0.5C9,3.9,10.1,5,11.5,5c0.2,0,0.3,0,0.5,0c0,0,0,0,0,0c0,1.7-1.3,3-3,3S6,6.7,6,5z"/>
</svg>
