<?xml version="1.0" encoding="utf-8"?>
<!-- Generator: Adobe Illustrator 18.0.0, SVG Export Plug-In . SVG Version: 6.00 Build 0)  -->
<!DOCTYPE svg PUBLIC "-//W3C//DTD SVG 1.1//EN" "http://www.w3.org/Graphics/SVG/1.1/DTD/svg11.dtd">
<svg version="1.1" id="SvgjsSvg1000" xmlns:svgjs="http://svgjs.com/svgjs"
	 xmlns="http://www.w3.org/2000/svg" xmlns:xlink="http://www.w3.org/1999/xlink" x="0px" y="0px" viewBox="0 0 15.3 14"
	 enable-background="new 0 0 15.3 14" xml:space="preserve">
<path id="SvgjsPath1007" fill="#d9dbe1" d="M13.9,0c0.4,0,0.7,0.1,1,0.4c0.3,0.3,0.4,0.6,0.4,1v8.9c0,0.4-0.1,0.7-0.4,1
	c-0.3,0.3-0.6,0.4-1,0.4h-2.8v0.1l-2-1.1v2.3l1,0.5l1-0.6V14L7,11.6H1.4c-0.4,0-0.7-0.1-1-0.4C0.1,11,0,10.6,0,10.3V1.4
	c0-0.4,0.1-0.7,0.4-1C0.6,0.1,1,0,1.4,0H13.9z M9.1,9.6h4.1V2H2v7.6h5.5l0.4,0.3l1.2,0.7V9.6z M11.5,6c0.6,0,1,0.5,1,1
	c0,0.6-0.4,1-1,1h-5c-0.5,0-1-0.4-1-1c0-0.5,0.5-1,1-1H11.5z M13.3,10.3c0-0.1,0.1-0.3,0.2-0.4c0.1-0.1,0.3-0.2,0.5-0.2h-0.7V10.3z
	 M1.4,9.6c0.1,0,0.3,0.1,0.5,0.2C1.9,9.9,2,10.1,2,10.3V9.6H1.4z M13.9,2c-0.2,0-0.4-0.1-0.5-0.2c-0.1-0.1-0.2-0.3-0.2-0.4V2H13.9z
	 M2,1.4c0,0.1-0.1,0.3-0.2,0.4C1.7,1.9,1.5,2,1.4,2H2V1.4z M11.5,3c0.6,0,1,0.5,1,1c0,0.6-0.4,1-1,1h-8c-0.6,0-1-0.4-1-1
	c0-0.5,0.4-1,1-1H11.5z"/>
</svg>
