<?xml version="1.0" encoding="utf-8"?>
<!-- Generator: Adobe Illustrator 18.0.0, SVG Export Plug-In . SVG Version: 6.00 Build 0)  -->
<!DOCTYPE svg PUBLIC "-//W3C//DTD SVG 1.1//EN" "http://www.w3.org/Graphics/SVG/1.1/DTD/svg11.dtd">
<svg version="1.1" id="SvgjsSvg1011" xmlns:svgjs="http://svgjs.com/svgjs"
	 xmlns="http://www.w3.org/2000/svg" xmlns:xlink="http://www.w3.org/1999/xlink" x="0px" y="0px" viewBox="0 0 15.3 14"
	 enable-background="new 0 0 15.3 14" xml:space="preserve">
<path id="SvgjsPath1013" fill="#427BE7" d="M1.4,0C1,0,0.6,0.1,0.4,0.4C0.1,0.7,0,1,0,1.4v8.9c0,0.4,0.1,0.7,0.4,1
	c0.3,0.3,0.6,0.4,1,0.4H7l4.2,2.4v-2.4h2.8c0.4,0,0.7-0.1,1-0.4c0.3-0.3,0.4-0.6,0.4-1V1.4c0-0.4-0.1-0.7-0.4-1
	c-0.3-0.3-0.6-0.4-1-0.4H1.4z"/>
<path id="SvgjsPath1014" fill="#FFFFFF" d="M4,3C3.5,3,3,3.5,3,4s0.5,1,1,1h8c0.5,0,1-0.5,1-1s-0.5-1-1-1H4z M7,6C6.5,6,6,6.5,6,7
	s0.5,1,1,1h5c0.5,0,1-0.5,1-1s-0.5-1-1-1H7z"/>
<path id="SvgjsPath1015" fill="#427BE7" d="M1.4,0C1,0,0.6,0.1,0.4,0.4C0.1,0.7,0,1,0,1.4v8.9c0,0.4,0.1,0.7,0.4,1
	c0.3,0.3,0.6,0.4,1,0.4H7l4.2,2.4v-2.4h2.8c0.4,0,0.7-0.1,1-0.4c0.3-0.3,0.4-0.6,0.4-1V1.4c0-0.4-0.1-0.7-0.4-1
	c-0.3-0.3-0.6-0.4-1-0.4H1.4z"/>
<path id="SvgjsPath1016" fill="#FFFFFF" d="M4,3C3.5,3,3,3.5,3,4s0.5,1,1,1h8c0.5,0,1-0.5,1-1s-0.5-1-1-1H4z M7,6C6.5,6,6,6.5,6,7
	s0.5,1,1,1h5c0.5,0,1-0.5,1-1s-0.5-1-1-1H7z"/>
</svg>
