<?xml version="1.0" encoding="utf-8"?>
<!-- Generator: Adobe Illustrator 18.0.0, SVG Export Plug-In . SVG Version: 6.00 Build 0)  -->
<!DOCTYPE svg PUBLIC "-//W3C//DTD SVG 1.1//EN" "http://www.w3.org/Graphics/SVG/1.1/DTD/svg11.dtd">
<svg version="1.1" id="SvgjsSvg1008" xmlns:svgjs="http://svgjs.com/svgjs"
	 xmlns="http://www.w3.org/2000/svg" xmlns:xlink="http://www.w3.org/1999/xlink" x="0px" y="0px" viewBox="0 0 20 18.1"
	 enable-background="new 0 0 20 18.1" xml:space="preserve">
<path id="SvgjsPath1010" fill="#d9dbe1" d="M5,2C3.6,2,2,3.8,2,5.8c0,2.4,1.6,4.9,4.3,7.3c1,0.9,2.1,1.7,3.2,2.4
	c0.2,0.1,0.3,0.2,0.5,0.3c0.2-0.1,0.3-0.2,0.5-0.3c1.1-0.7,2.2-1.5,3.2-2.4c2.7-2.4,4.3-4.9,4.3-7.3C18,3.5,16.7,2,14.9,2
	c-1.3-0.1-2.5,0.6-3.2,1.7c-0.8,1.2-2.5,1.2-3.3,0.1C7.6,2.7,6.3,2,5,2z M9.4,16.1c-0.2,0.1-0.3,0.2-0.4,0.2h1.8
	c-0.1,0-0.2-0.1-0.4-0.2c-0.2-0.1-0.4-0.2-0.6-0.3C9.8,15.9,9.6,16,9.4,16.1z M15,0c3,0,5,2.6,5,5.8c0,7.1-10,12.3-10,12.3
	S0,12.9,0,5.8C0,2.6,2.5,0,5,0c2.9,0,5,2,5,2S11.9,0,15,0z"/>
</svg>
