<svg id="SvgjsSvg1000" xmlns="http://www.w3.org/2000/svg" version="1.1" xmlns:xlink="http://www.w3.org/1999/xlink" xmlns:svgjs="http://svgjs.com/svgjs" width="94" height="113.63818974229798"><defs id="SvgjsDefs1001"></defs><path id="SvgjsPath1007" d="M914.75 2300C890.04 2300 870 2320.33 870 2345.42C870 2370.5 914.75 2409 914.75 2409C914.75 2409 959.51 2370.5 959.51 2345.42C959.51 2320.33 939.47 2300 914.75 2300 " fill-opacity="0" fill="#ffffff" stroke-dasharray="0" stroke-linejoin="miter" stroke-linecap="butt" stroke-opacity="1" stroke="#5c8be4" stroke-miterlimit="50" stroke-width="4" transform="matrix(1,0,0,1,-868,-2297.680905128851)"></path><path id="SvgjsPath1008" d="M914.9 2327C905.02 2327 897 2335.13 897 2345.17C897 2355.2000000000003 905.02 2363.33 914.9 2363.33C924.79 2363.33 932.8 2355.2 932.8 2345.17C932.8 2335.13 924.79 2327 914.9 2327 " fill-opacity="0" fill="#ffffff" stroke-dasharray="0" stroke-linejoin="miter" stroke-linecap="butt" stroke-opacity="1" stroke="#5c8be4" stroke-miterlimit="50" stroke-width="4" transform="matrix(1,0,0,1,-868,-2297.680905128851)"></path><path id="SvgjsPath1009" d="M914.75 2300C890.04 2300 870 2320.33 870 2345.42C870 2370.5 914.75 2409 914.75 2409C914.75 2409 959.51 2370.5 959.51 2345.42C959.51 2320.33 939.47 2300 914.75 2300 " fill-opacity="0" fill="#ffffff" stroke-dasharray="0" stroke-linejoin="miter" stroke-linecap="butt" stroke-opacity="1" stroke="#5c8be4" stroke-miterlimit="50" stroke-width="4" transform="matrix(1,0,0,1,-868,-2297.680905128851)"></path><path id="SvgjsPath1010" d="M914.9 2327C905.02 2327 897 2335.13 897 2345.17C897 2355.2000000000003 905.02 2363.33 914.9 2363.33C924.79 2363.33 932.8 2355.2 932.8 2345.17C932.8 2335.13 924.79 2327 914.9 2327 " fill-opacity="0" fill="#ffffff" stroke-dasharray="0" stroke-linejoin="miter" stroke-linecap="butt" stroke-opacity="1" stroke="#5c8be4" stroke-miterlimit="50" stroke-width="4" transform="matrix(1,0,0,1,-868,-2297.680905128851)"></path></svg>