<svg id="SvgjsSvg1011" xmlns="http://www.w3.org/2000/svg" version="1.1" xmlns:xlink="http://www.w3.org/1999/xlink" xmlns:svgjs="http://svgjs.com/svgjs" width="89" height="87"><defs id="SvgjsDefs1012"><clipPath id="SvgjsClipPath1015"><path id="SvgjsPath1014" d="M1198.5 2426.32L1185.92 2413.6800000000003C1184.23 2411.9900000000002 1181.97 2411.0600000000004 1179.5500000000002 2411.0600000000004C1177.0400000000002 2411.0600000000004 1174.67 2412.0600000000004 1172.8700000000001 2413.8600000000006L1167.98 2418.7800000000007C1164.17 2416.6500000000005 1159.1200000000001 2413.7300000000005 1153.8700000000001 2408.4600000000005C1148.63 2403.1900000000005 1145.72 2398.1300000000006 1143.5900000000001 2394.2900000000004L1148.4900000000002 2389.3700000000003C1152.1400000000003 2385.7000000000003 1152.2100000000003 2379.82 1148.6600000000003 2376.26L1136.0900000000004 2363.63C1134.4000000000003 2361.9300000000003 1132.1400000000003 2361 1129.7200000000005 2361C1127.2600000000004 2361 1124.9400000000005 2361.95 1123.1500000000005 2363.68C1122.0700000000006 2364.5499999999997 1116.6500000000005 2369.3599999999997 1114.6300000000006 2379.27C1111.8100000000006 2393.14 1118.3000000000006 2406.48 1137.0600000000006 2425.33C1158.0100000000007 2446.36 1175.8900000000006 2448 1180.8700000000006 2448C1181.9100000000005 2448 1182.5400000000006 2447.94 1182.7000000000005 2447.92C1192.4700000000005 2446.77 1195.9700000000005 2442.41 1198.5300000000004 2439.2200000000003C1201.8400000000004 2435.1000000000004 1201.8200000000004 2429.67 1198.5000000000005 2426.32Z " fill="#ffffff"></path></clipPath></defs><path id="SvgjsPath1013" d="M1198.5 2426.32L1185.92 2413.6800000000003C1184.23 2411.9900000000002 1181.97 2411.0600000000004 1179.5500000000002 2411.0600000000004C1177.0400000000002 2411.0600000000004 1174.67 2412.0600000000004 1172.8700000000001 2413.8600000000006L1167.98 2418.7800000000007C1164.17 2416.6500000000005 1159.1200000000001 2413.7300000000005 1153.8700000000001 2408.4600000000005C1148.63 2403.1900000000005 1145.72 2398.1300000000006 1143.5900000000001 2394.2900000000004L1148.4900000000002 2389.3700000000003C1152.1400000000003 2385.7000000000003 1152.2100000000003 2379.82 1148.6600000000003 2376.26L1136.0900000000004 2363.63C1134.4000000000003 2361.9300000000003 1132.1400000000003 2361 1129.7200000000005 2361C1127.2600000000004 2361 1124.9400000000005 2361.95 1123.1500000000005 2363.68C1122.0700000000006 2364.5499999999997 1116.6500000000005 2369.3599999999997 1114.6300000000006 2379.27C1111.8100000000006 2393.14 1118.3000000000006 2406.48 1137.0600000000006 2425.33C1158.0100000000007 2446.36 1175.8900000000006 2448 1180.8700000000006 2448C1181.9100000000005 2448 1182.5400000000006 2447.94 1182.7000000000005 2447.92C1192.4700000000005 2446.77 1195.9700000000005 2442.41 1198.5300000000004 2439.2200000000003C1201.8400000000004 2435.1000000000004 1201.8200000000004 2429.67 1198.5000000000005 2426.32Z " fill-opacity="0" fill="#ffffff" stroke-dasharray="0" stroke-linejoin="miter" stroke-linecap="butt" stroke-opacity="1" stroke="#427be7" stroke-miterlimit="50" stroke-width="8" clip-path="url(&quot;#SvgjsClipPath1015&quot;)" transform="matrix(1,0,0,1,-1113,-2361)"></path></svg>